<?xml version="1.0" standalone="no"?>
<!DOCTYPE svg PUBLIC "-//W3C//DTD SVG 20010904//EN"
 "http://www.w3.org/TR/2001/REC-SVG-20010904/DTD/svg10.dtd">
<svg version="1.0" xmlns="http://www.w3.org/2000/svg"
 width="1134.000000pt" height="1134.000000pt" viewBox="0 0 1134.000000 1134.000000"
 preserveAspectRatio="xMidYMid meet">

<g transform="translate(0.000000,1134.000000) scale(0.100000,-0.100000)"
fill="#000000" stroke="none">
<path d="M3135 8424 c-219 -29 -435 -87 -644 -170 -501 -201 -900 -524 -1192
-962 -199 -300 -321 -604 -387 -962 -24 -136 -26 -165 -27 -450 0 -339 8 -412
70 -655 47 -182 97 -315 186 -495 251 -505 619 -881 1100 -1125 138 -70 276
-132 306 -137 10 -2 20 -6 23 -10 3 -4 17 -9 30 -10 14 -2 27 -6 30 -10 3 -4
15 -9 25 -11 11 -1 26 -6 33 -10 6 -5 12 -5 12 -1 0 3 6 2 13 -4 7 -6 26 -9
41 -6 20 3 25 1 20 -7 -4 -8 -3 -9 4 -5 16 10 15 18 -3 42 -11 14 -15 15 -13
4 2 -9 -1 -15 -7 -15 -5 0 -8 6 -7 14 2 7 -1 10 -7 6 -6 -3 -11 -14 -12 -23 0
-9 -3 -12 -5 -5 -3 6 2 23 12 37 13 21 13 26 3 26 -12 0 -12 2 -1 9 17 11 17
21 0 32 -8 5 -9 9 -2 9 19 0 37 -27 23 -35 -8 -6 -7 -10 2 -16 10 -6 11 -9 2
-9 -7 0 -13 -4 -13 -8 0 -5 7 -9 15 -9 14 0 19 11 16 31 -1 4 1 17 5 28 6 19
6 19 21 1 13 -16 14 -16 9 0 -9 27 -13 43 -9 34 3 -4 9 -4 14 -1 6 3 5 11 -2
20 -9 11 -15 11 -25 3 -8 -6 -11 -16 -7 -22 3 -6 1 -7 -6 -3 -8 6 -9 12 -2 20
6 7 7 16 3 20 -4 4 0 6 8 4 8 -2 14 2 15 9 0 6 3 14 6 18 4 3 6 -5 5 -17 -1
-14 4 -22 12 -20 8 1 11 -2 8 -7 -4 -5 -2 -12 4 -16 5 -3 10 -1 10 4 0 19 2
26 9 36 4 6 7 25 6 42 -1 18 1 30 3 28 3 -3 11 0 19 6 9 8 10 15 3 24 -8 10
-8 15 1 21 7 4 9 3 5 -4 -3 -6 -1 -14 4 -17 8 -5 5 -14 -6 -26 -10 -11 -19
-29 -21 -41 -3 -17 -1 -19 12 -8 8 7 12 16 10 21 -3 4 4 13 15 19 11 6 18 15
15 21 -4 5 -1 8 6 7 6 -2 14 3 17 11 2 8 0 11 -6 7 -9 -5 -10 14 -2 34 1 3 2
9 1 13 -1 5 3 6 9 2 8 -5 8 -11 1 -19 -7 -9 -7 -16 2 -25 9 -10 5 -18 -20 -41
-18 -16 -28 -32 -24 -35 5 -3 23 11 40 31 24 27 29 39 21 49 -8 10 -8 15 0 20
6 4 14 4 17 1 4 -3 1 -6 -6 -6 -7 0 -9 -5 -6 -10 5 -8 11 -7 21 1 12 9 12 15
2 28 -12 14 -11 14 4 2 10 -7 16 -17 13 -21 -3 -5 -1 -11 5 -15 5 -3 10 3 10
14 0 11 -5 23 -10 26 -8 5 -8 11 -1 19 7 9 7 16 0 23 -8 8 -7 13 3 18 7 5 10
4 5 0 -4 -5 1 -17 10 -27 10 -11 13 -18 8 -16 -6 2 -11 -1 -13 -7 -3 -13 21
-14 30 -1 4 6 2 17 -5 24 -15 19 -18 42 -4 39 7 -1 11 4 10 11 -2 6 2 12 7 12
6 0 10 -6 9 -12 -3 -26 1 -39 11 -33 6 4 7 11 4 17 -4 7 -2 8 4 4 7 -4 12 -1
12 9 0 9 -4 14 -8 11 -4 -2 -9 5 -9 16 -2 20 -1 20 12 2 8 -11 15 -24 15 -29
0 -6 9 -11 21 -12 12 -1 18 3 16 10 -3 7 -9 11 -15 10 -13 -3 -5 25 15 48 7 9
10 19 6 23 -4 3 -8 16 -10 28 -2 12 -1 19 3 16 3 -3 7 -14 8 -25 4 -25 27 -23
51 6 22 28 27 48 14 57 -5 3 -9 11 -9 17 0 7 5 4 11 -6 10 -17 12 -17 29 -2
11 10 28 14 44 11 19 -3 26 -1 23 7 -3 7 -10 11 -17 9 -10 -2 -9 3 2 20 8 13
14 31 12 41 -1 11 1 16 4 12 4 -4 7 -10 8 -13 0 -4 4 -15 9 -25 4 -10 3 -29
-3 -42 -7 -15 -8 -26 -2 -30 6 -4 10 2 11 12 0 13 2 14 6 4 3 -8 -2 -20 -12
-27 -10 -8 -15 -20 -11 -29 3 -9 2 -14 -2 -11 -5 3 -7 -21 -6 -52 2 -46 0 -52
-8 -32 -5 14 -7 37 -4 52 3 15 2 29 -3 32 -11 7 -12 -59 -1 -88 6 -17 5 -26
-3 -30 -8 -3 -8 -5 2 -5 10 -1 10 -7 -4 -27 -16 -25 -16 -27 1 -43 11 -9 13
-9 6 -1 -16 18 -16 33 1 23 17 -10 38 -13 32 -3 -5 9 29 42 37 35 2 -3 5 2 5
10 0 12 -5 11 -22 -5 -12 -11 -25 -17 -29 -13 -4 5 -6 3 -4 -2 2 -6 -2 -10 -7
-10 -5 0 -8 5 -6 10 2 6 4 15 5 20 1 6 6 10 11 10 6 0 9 -4 7 -10 -1 -5 11 4
27 22 26 28 29 36 21 62 -5 18 -5 33 1 36 8 6 14 -16 10 -38 -1 -5 3 -6 8 -2
7 3 7 15 1 30 -6 15 -6 27 0 30 6 4 11 1 11 -4 3 -26 4 -30 12 -37 4 -4 -1
-17 -10 -28 -13 -15 -14 -17 -2 -9 10 8 19 9 27 3 9 -7 9 -7 2 2 -7 8 -5 17 6
29 11 12 12 19 4 24 -8 5 -8 11 1 21 10 13 14 12 29 -1 21 -19 35 -6 35 35 0
25 28 74 37 65 2 -3 5 2 5 10 0 8 -4 12 -9 9 -4 -3 -8 2 -8 11 0 13 4 14 20 5
11 -6 18 -15 15 -21 -4 -5 -1 -8 7 -7 8 2 13 -6 12 -20 -1 -12 1 -20 5 -17 3
4 6 15 6 26 0 10 5 19 10 18 6 -1 9 -5 8 -9 -1 -4 5 -14 15 -21 14 -11 15 -11
5 1 -10 11 -9 18 9 37 12 13 18 23 13 23 -5 0 2 11 14 24 15 16 19 26 11 31
-8 5 -6 13 6 26 14 15 20 17 33 7 10 -8 8 -3 -4 12 -11 14 -21 27 -23 30 -2 3
-2 -2 0 -10 1 -9 -1 -15 -7 -15 -5 0 -9 3 -8 7 3 8 -18 5 -34 -5 -8 -5 -13 -3
-13 5 0 9 -3 9 -10 -2 -8 -12 -10 -12 -11 5 0 19 -1 19 -8 1 -7 -17 -8 -18
-14 -3 -5 13 -12 15 -29 9 -24 -9 -70 -7 -95 3 -9 3 -13 0 -10 -7 2 -7 9 -12
14 -11 6 1 8 -10 5 -24 -3 -18 -1 -24 7 -19 6 4 9 11 7 15 -3 4 -1 13 5 21 7
12 9 12 9 1 0 -9 4 -10 13 -4 6 5 21 9 32 9 11 -1 23 3 27 9 4 5 6 -3 4 -18
-3 -34 -16 -48 -16 -19 0 12 -4 22 -8 22 -5 0 -7 -13 -6 -29 2 -24 -2 -29 -17
-26 -10 2 -21 -1 -24 -6 -4 -5 -11 -6 -17 -3 -7 5 -8 2 -3 -7 8 -12 6 -12 -8
0 -15 12 -17 11 -17 -3 0 -10 5 -14 10 -11 6 3 10 1 10 -4 0 -6 -4 -11 -10
-11 -5 0 -10 -5 -10 -11 0 -5 6 -7 13 -3 6 4 9 4 5 0 -4 -5 2 -17 12 -29 11
-11 17 -24 13 -30 -3 -5 -12 1 -19 14 -7 13 -13 18 -14 10 0 -20 -10 -8 -15
19 -7 36 -18 38 -13 3 2 -18 1 -33 -4 -33 -4 0 -8 13 -8 29 0 17 -5 33 -10 36
-10 6 -7 -20 5 -62 2 -6 -3 -10 -10 -9 -17 2 -33 16 -19 16 5 0 10 10 11 23 2
22 2 22 -13 2 -19 -26 -14 -48 13 -55 17 -4 20 -9 13 -20 -9 -13 -10 -13 -10
0 0 13 -1 13 -10 0 -8 -12 -10 -12 -11 5 l0 20 -9 -20 -9 -20 0 20 c-1 17 -3
17 -11 5 -11 -16 -13 -4 -13 52 1 18 -3 26 -11 21 -6 -3 -8 -2 -3 2 4 5 0 16
-8 25 -13 14 -13 17 0 17 8 0 12 -3 11 -6 -2 -3 7 -20 20 -36 26 -33 33 -23 9
12 -9 12 -14 28 -13 35 2 7 -2 12 -8 11 -6 -1 -11 5 -11 13 0 10 9 6 29 -13
19 -19 26 -33 23 -47 -6 -21 -6 -21 10 -1 14 18 13 22 -22 59 -21 22 -31 35
-22 28 9 -6 20 -8 24 -4 5 4 5 2 2 -4 -8 -13 16 -37 26 -27 12 11 7 24 -5 17
-7 -4 -10 -4 -6 1 4 4 2 15 -5 24 -10 14 -10 14 4 4 9 -7 18 -10 21 -8 3 3 5
-5 4 -17 0 -13 4 -24 9 -25 13 -4 14 38 1 57 -8 13 -8 13 4 2 8 -7 15 -22 15
-33 0 -10 4 -18 10 -16 12 3 7 37 -8 55 -6 8 -23 12 -39 10 -15 -3 -29 -1 -30
3 -2 4 -28 10 -58 14 -65 7 -84 10 -170 29 -241 54 -410 134 -618 293 -112 86
-142 114 -222 208 -177 209 -304 472 -361 751 -26 128 -37 440 -20 581 47 378
195 687 456 949 180 180 373 298 617 378 173 56 276 71 498 71 272 -1 433 -33
665 -134 222 -95 400 -217 578 -393 60 -60 112 -108 116 -108 3 0 14 8 22 18
8 9 65 62 125 117 188 172 367 338 424 391 30 29 74 69 98 90 l43 39 -58 65
c-227 259 -533 478 -883 633 -250 110 -569 195 -820 217 -162 14 -574 11 -695
-6z m252 -4219 c0 -8 -4 -12 -9 -9 -5 3 -6 10 -3 15 9 13 12 11 12 -6z m307
-26 c-3 -5 -10 -7 -15 -3 -5 3 -6 10 -3 16 5 7 2 8 -5 3 -9 -5 -7 -13 8 -29
21 -23 21 -23 1 -41 -11 -10 -17 -21 -15 -25 6 -10 -20 -32 -28 -23 -12 11 -7
24 6 17 6 -4 9 -3 4 1 -4 5 2 18 13 30 l20 22 -20 18 c-20 18 -28 41 -11 30 5
-3 13 -1 16 5 5 8 11 7 21 -1 7 -6 11 -15 8 -20z m-74 9 c0 7 11 1 24 -15 l24
-27 -31 -37 -31 -37 -24 19 c-27 21 -46 16 -39 -11 2 -10 1 -23 -3 -30 -6 -9
-13 -4 -24 17 -13 26 -13 33 -1 49 7 11 24 19 37 19 15 1 22 6 20 15 -2 8 0
12 4 8 12 -12 33 12 27 30 -4 15 -3 15 6 2 8 -11 11 -12 11 -2z m-315 -109
c-3 -12 -7 -24 -10 -27 -3 -3 -3 5 -1 19 6 30 5 29 10 29 3 0 3 -10 1 -21z
m-28 -4 c0 -8 -4 -12 -9 -9 -5 3 -6 10 -3 15 9 13 12 11 12 -6z m5 -36 c2 -2
1 -3 -1 -1 -2 1 -14 -6 -25 -15 -15 -14 -18 -14 -8 -2 6 9 9 18 6 22 -3 3 1 4
10 3 8 -1 17 -4 18 -7z m204 -26 c-2 -2 -11 0 -20 3 -14 5 -15 9 -5 15 12 7
34 -10 25 -18z m30 -31 c2 -34 -12 -36 -37 -5 -12 16 -19 20 -16 11 3 -9 -1
-22 -9 -29 -11 -9 -12 -15 -3 -25 6 -8 9 -14 5 -14 -3 0 -8 0 -11 0 -3 0 -4 1
-3 3 1 1 -4 13 -11 25 l-13 24 -23 -22 c-19 -18 -22 -27 -15 -51 7 -22 4 -34
-10 -51 -17 -22 -19 -22 -26 -4 -13 32 -6 122 10 135 16 14 82 7 78 -8 -1 -7
2 -10 8 -6 6 3 8 10 6 14 -9 14 11 32 27 25 9 -3 15 -10 12 -14 -3 -5 -1 -11
4 -14 5 -3 7 11 5 32 -3 32 -2 34 9 17 6 -11 12 -30 13 -43z m-299 -7 c0 -8
-10 -23 -21 -32 -21 -18 -21 -18 -4 2 25 30 25 31 3 56 l-20 24 21 -18 c11 -9
21 -24 21 -32z m-31 0 c-1 -8 -5 -17 -8 -21 -5 -4 -4 16 1 34 3 9 9 -1 7 -13z
m-49 -20 c0 -8 -4 -12 -9 -9 -5 3 -6 10 -3 15 9 13 12 11 12 -6z m-3 -66 c-8
-8 -11 -19 -7 -24 5 -4 2 -5 -5 -1 -11 7 -11 11 1 24 8 10 12 24 10 32 -4 13
-3 13 6 0 7 -10 6 -19 -5 -31z m-54 -4 c-5 -6 -7 -15 -3 -18 3 -4 4 -7 1 -7
-3 0 -11 7 -18 16 -8 8 -9 14 -4 13 21 -4 26 2 13 19 -13 15 -12 16 4 3 12 -9
14 -17 7 -26z m-104 -109 c0 -14 -3 -23 -7 -20 -6 3 -6 22 0 42 3 10 7 -2 7
-22z m29 15 c3 -5 2 -12 -3 -15 -5 -3 -9 1 -9 9 0 17 3 19 12 6z m-150 -100
c3 -5 2 -12 -3 -15 -5 -3 -9 1 -9 9 0 17 3 19 12 6z m-30 -20 c3 -5 2 -12 -3
-15 -5 -3 -9 1 -9 9 0 17 3 19 12 6z m21 -46 c-1 -13 -4 -27 -7 -30 -5 -4 -4
41 0 53 4 10 8 -2 7 -23z m-76 -9 c0 -2 -8 -10 -17 -17 -16 -13 -17 -12 -4 4
13 16 21 21 21 13z m-10 -50 c-6 -6 -4 -16 8 -30 17 -21 17 -21 -4 -3 -23 19
-27 44 -7 44 9 0 10 -4 3 -11z m-40 -40 c0 -2 -8 -10 -17 -17 -16 -13 -17 -12
-4 4 13 16 21 21 21 13z m2 -28 c-8 -8 -8 -15 -1 -24 7 -8 6 -14 -2 -20 -7 -4
-9 -3 -5 4 3 6 2 14 -4 17 -11 7 4 35 18 35 3 0 1 -5 -6 -12z m-19 -48 c3 -11
2 -22 -2 -24 -4 -3 -8 6 -9 20 -2 29 4 31 11 4z"/>
<path d="M3599 4151 c-17 -23 -29 -30 -46 -26 -13 2 -21 0 -18 -5 3 -5 -3 -13
-12 -19 -10 -6 -13 -11 -7 -11 6 0 17 7 24 15 7 8 16 12 22 9 5 -3 15 -1 23 6
9 7 15 8 20 0 3 -5 1 -10 -4 -10 -6 0 -11 -5 -11 -12 0 -6 8 -3 20 7 11 10 17
22 13 28 -4 6 0 8 9 4 18 -6 19 16 1 34 -8 8 -17 2 -34 -20z m27 -3 c-9 -5
-13 -15 -10 -21 5 -9 4 -9 -6 0 -11 10 -11 15 0 27 7 9 17 13 22 10 6 -4 4
-11 -6 -16z"/>
<path d="M3357 3968 c-2 -7 -3 -25 -1 -41 1 -15 -1 -25 -6 -22 -7 4 -7 -17 0
-35 1 -3 2 -9 1 -13 -1 -5 2 -6 7 -3 5 3 8 22 7 43 -1 28 4 42 23 58 19 16 21
22 9 22 -9 0 -15 -5 -14 -10 1 -5 -4 -12 -11 -14 -8 -3 -10 1 -6 11 3 9 4 16
1 16 -3 0 -7 -6 -10 -12z"/>
<path d="M7440 8224 c-428 -55 -771 -179 -1100 -399 -439 -293 -771 -710 -944
-1189 -41 -111 -96 -295 -96 -319 0 -4 193 -6 430 -5 351 3 431 1 435 -10 3
-8 5 -99 5 -203 0 -126 4 -189 11 -189 5 0 7 5 3 12 -4 6 -3 8 4 4 6 -3 15 6
20 21 10 27 11 27 7 -7 -2 -19 -8 -34 -14 -32 -6 1 -11 -3 -11 -9 0 -5 -4 -8
-8 -5 -5 3 -8 -9 -7 -27 1 -21 7 -33 18 -35 10 -2 15 -8 11 -13 -3 -5 -8 -7
-12 -5 -10 6 -6 -55 5 -83 l10 -25 7 28 c4 17 2 34 -5 42 -9 11 -9 20 -1 37 7
12 12 31 11 42 0 27 10 107 16 124 3 7 0 21 -7 29 -9 11 -9 13 -1 9 13 -8 39
95 29 112 -4 5 -2 11 4 13 5 1 10 18 12 36 1 17 6 32 11 32 5 0 4 7 -3 16 -11
12 -11 15 1 12 9 -2 14 5 13 19 0 12 4 19 9 16 6 -4 8 1 4 10 -4 10 -2 17 4
17 6 0 8 8 5 17 -4 10 -4 14 0 10 7 -7 44 65 44 85 0 15 100 176 160 257 69
94 199 221 305 301 81 61 243 149 350 190 33 13 62 26 65 29 3 3 13 6 23 7 46
2 58 5 54 12 -3 4 13 8 35 9 23 2 46 7 53 13 6 5 15 7 18 4 3 -4 14 -3 24 1
10 4 31 7 47 6 24 -2 28 0 22 15 -5 13 -3 14 6 6 15 -12 251 -15 243 -2 -2 4
3 14 13 21 15 12 16 12 5 -2 -13 -16 -8 -29 9 -29 5 0 6 5 3 11 -4 6 3 5 14
-3 18 -11 23 -11 31 2 5 8 10 10 10 4 0 -15 25 -25 43 -18 17 6 16 49 -2 66
-11 11 -12 9 -7 -12 3 -14 3 -19 0 -12 -8 17 -24 5 -18 -13 4 -8 11 -12 17 -8
6 4 7 1 2 -7 -6 -10 -11 -9 -22 6 -8 10 -18 18 -22 17 -15 -4 -4 57 14 77 10
11 20 18 24 17 15 -4 51 25 45 36 -4 7 -4 9 1 5 4 -4 15 -3 24 3 9 6 -1 -4
-21 -23 -21 -19 -35 -38 -31 -41 3 -4 15 0 25 10 10 9 21 13 25 10 3 -4 1 -7
-6 -7 -7 0 -9 -5 -6 -10 5 -8 12 -7 23 2 13 11 14 11 7 -2 -17 -27 -14 -40 8
-36 12 3 26 5 30 5 5 1 6 5 2 11 -3 5 -13 7 -23 4 -10 -4 -13 -2 -7 3 15 12
17 65 2 57 -7 -4 -9 -4 -5 1 4 4 3 16 -2 26 -7 12 -6 20 2 25 7 4 10 4 6 -1
-4 -4 -3 -16 3 -27 9 -16 13 -17 27 -6 14 11 14 10 -1 -12 -9 -13 -17 -31 -17
-40 0 -12 2 -12 9 -2 7 11 9 10 15 -3 6 -17 26 -12 26 6 0 6 -6 7 -12 3 -7 -5
0 7 15 25 21 26 25 36 16 47 -8 10 -6 12 10 9 13 -2 25 3 31 16 6 10 15 19 21
19 6 0 3 -7 -6 -16 -20 -20 -11 -32 10 -14 14 11 19 7 16 -12 -1 -11 17 -10
23 1 3 5 -1 14 -9 21 -7 6 -11 18 -8 26 3 8 -1 22 -8 32 -13 15 -12 16 4 3 10
-8 16 -22 14 -33 -3 -10 -1 -21 4 -24 5 -3 10 0 10 5 1 6 2 17 3 24 3 15 -34
58 -44 52 -4 -3 -14 3 -21 13 -13 15 -12 16 4 3 9 -7 17 -10 17 -5 0 4 13 -5
29 -20 27 -26 32 -50 16 -76 -3 -6 1 -10 10 -10 9 0 14 4 10 9 -3 5 -1 12 5
16 6 4 8 11 4 16 -3 5 1 20 9 32 8 12 13 30 11 40 -1 9 1 15 5 13 4 -3 15 8
25 25 9 16 14 29 10 29 -3 0 -1 6 5 13 6 8 7 18 3 23 -4 4 0 3 9 -4 9 -6 19
-10 22 -7 4 3 4 2 1 -3 -3 -4 -10 -7 -16 -7 -10 0 -17 -19 -20 -52 -1 -7 -5
-10 -10 -7 -4 3 -8 1 -8 -5 0 -5 4 -12 9 -15 11 -7 35 20 28 32 -3 4 -2 14 3
22 7 11 9 8 8 -10 -1 -14 -5 -30 -10 -37 -5 -6 -5 -14 0 -17 11 -7 26 22 23
43 -1 7 2 10 9 6 6 -4 9 -13 6 -21 -3 -8 -2 -14 2 -14 4 0 8 -13 8 -30 2 -29
1 -29 -15 -8 -16 19 -18 19 -34 3 -22 -21 -22 -34 1 -30 9 2 19 4 22 4 3 1 -2
6 -10 11 -9 6 -10 10 -3 10 6 0 14 -4 17 -9 7 -10 -18 -33 -27 -26 -4 3 -5 2
-3 -1 3 -3 1 -17 -5 -31 -6 -16 -6 -22 1 -18 6 3 10 2 10 -3 0 -6 -7 -12 -15
-16 -18 -6 -20 16 -5 44 7 13 7 21 0 25 -5 3 -11 1 -11 -4 -3 -26 -4 -30 -11
-36 -4 -4 -4 -14 -1 -23 4 -10 3 -14 -1 -10 -4 3 -8 12 -10 20 -3 22 -17 39
-27 33 -5 -4 -3 -13 6 -21 8 -9 15 -21 15 -27 0 -7 -7 -3 -15 7 -8 11 -15 15
-15 8 0 -7 -7 -9 -17 -5 -16 6 -16 4 1 -15 11 -12 14 -22 8 -22 -7 0 -12 6
-12 13 0 9 -3 8 -9 -2 -7 -11 -10 -11 -15 0 -3 8 -4 5 -1 -7 3 -12 -1 -27 -10
-34 -19 -16 -19 -39 -1 -46 8 -3 12 -12 10 -19 -3 -7 -1 -16 5 -20 7 -3 8 0 5
9 -7 17 17 16 39 -2 11 -10 17 -9 26 2 9 11 8 17 -6 28 -10 7 -19 22 -21 33
-3 16 1 15 21 -9 16 -20 26 -26 31 -17 4 7 2 10 -5 9 -6 -2 -13 2 -16 9 -2 7
3 10 14 8 10 -2 22 -4 26 -4 5 -1 6 -5 2 -10 -3 -5 -1 -12 5 -16 6 -4 7 -12 3
-18 -4 -7 0 -6 10 2 20 16 22 22 5 18 -7 -1 -12 4 -10 11 1 7 -4 15 -12 18 -8
3 -12 13 -9 25 3 10 9 16 14 13 5 -3 7 -9 4 -14 -3 -5 -1 -11 4 -15 6 -3 8 3
6 14 -4 22 22 64 36 56 13 -9 11 -25 -3 -22 -7 1 -13 -8 -14 -20 -1 -12 2 -20
7 -17 4 2 5 12 2 22 -6 14 -4 15 9 4 13 -10 15 -9 15 10 0 31 13 59 24 52 5
-3 6 -11 2 -17 -9 -15 -11 -87 -3 -92 4 -2 6 16 5 41 -1 46 14 71 37 59 7 -4
5 0 -4 8 -10 8 -15 17 -11 20 3 4 12 2 20 -4 7 -6 13 -8 13 -4 0 5 9 0 20 -10
16 -15 18 -21 7 -34 -11 -14 -10 -14 6 -2 17 13 17 15 -5 38 -13 14 -21 27
-20 30 2 2 1 8 -3 11 -4 4 -5 2 -3 -3 3 -9 -4 -15 -17 -15 -3 0 -1 9 5 21 11
20 13 20 31 3 10 -9 16 -20 14 -25 -3 -4 0 -11 7 -16 16 -10 42 -14 33 -5 -4
4 -12 7 -18 7 -7 0 -13 6 -13 13 -1 6 -3 14 -4 17 -7 14 -3 45 5 45 6 0 10 -9
10 -20 0 -10 7 -26 16 -35 14 -14 17 -14 35 7 l19 23 -21 -18 c-17 -14 -23
-15 -31 -5 -12 16 -11 27 6 56 9 18 15 21 26 12 10 -8 15 -8 21 2 4 7 4 10 -1
6 -9 -9 -30 12 -39 38 -4 15 -2 21 9 21 11 0 14 -7 9 -21 -4 -17 -3 -18 5 -6
9 13 15 8 13 -11 -1 -3 5 -6 12 -6 8 0 13 7 11 16 -1 9 -8 15 -14 14 -13 -4
-15 13 -2 22 13 7 40 -32 36 -53 -1 -9 -9 -16 -16 -14 -11 3 -11 1 -2 -9 10
-10 10 -16 -3 -30 -12 -14 -13 -18 -2 -25 7 -4 10 -3 5 1 -4 5 0 17 10 27 9
10 13 18 8 18 -4 0 -3 6 2 13 10 14 10 22 -1 55 -4 12 -12 22 -17 22 -5 0 -9
8 -9 18 0 15 2 15 11 2 8 -12 9 -10 4 7 -5 17 -3 22 8 17 9 -3 13 -14 11 -27
-4 -21 -4 -21 5 -2 4 11 7 23 4 28 -2 4 1 7 7 7 8 0 10 -9 5 -27 -9 -33 -7
-61 5 -93 1 -3 2 -9 1 -13 -1 -5 3 -6 9 -2 6 3 7 12 3 18 -4 7 -8 17 -9 22 -1
6 -3 15 -4 20 -5 23 1 46 10 40 6 -4 7 -11 4 -17 -4 -7 -2 -8 5 -4 9 6 9 11 1
22 -7 7 -10 19 -8 26 5 14 44 -51 40 -65 -1 -5 2 -6 7 -2 6 3 2 20 -10 40 -12
19 -17 35 -11 35 15 0 33 -26 24 -35 -4 -5 -1 -5 6 -1 9 6 10 11 3 20 -14 17
-2 29 15 15 8 -7 14 -7 19 1 4 6 1 9 -6 8 -13 -3 -28 39 -21 60 9 25 20 11 17
-20 -2 -18 -1 -25 1 -15 3 9 9 15 13 13 4 -3 8 6 9 20 3 45 5 54 13 54 11 0
28 -57 21 -67 -4 -4 3 1 15 11 16 13 20 23 13 31 -10 12 -4 25 12 25 5 0 7 -4
3 -9 -3 -5 -1 -12 4 -15 20 -13 4 25 -17 40 -12 8 -20 20 -16 25 3 6 -5 8 -21
5 -17 -3 -28 0 -32 10 -3 7 -9 11 -14 8 -5 -3 -4 -14 2 -26 7 -13 7 -18 1 -14
-6 3 -13 -4 -15 -16 -4 -22 -4 -22 -6 -2 -1 25 -39 40 -48 19 -10 -28 2 -38
22 -19 16 16 18 16 13 2 -4 -9 -2 -18 4 -20 5 -2 2 -10 -8 -18 -16 -14 -17
-13 -11 3 3 9 2 17 -3 17 -5 0 -8 -15 -7 -32 2 -19 8 -32 15 -31 7 2 12 -5 12
-15 0 -24 -8 -32 -26 -25 -20 8 -17 23 4 16 14 -5 14 -4 -2 9 -12 10 -19 27
-18 48 1 30 0 31 -14 14 -14 -18 -14 -18 -7 0 4 13 3 17 -5 12 -17 -10 -15
-36 3 -36 18 0 19 -19 1 -42 -15 -20 -31 -25 -20 -6 4 6 3 8 -4 4 -17 -10 -20
16 -5 52 12 29 10 36 -9 33 -4 0 -5 7 -2 17 5 14 3 14 -10 -2 -20 -25 -20 -37
-1 -30 8 4 15 1 15 -6 0 -6 -5 -8 -12 -4 -7 5 -9 2 -6 -8 4 -8 2 -21 -3 -29
-8 -12 -10 -12 -8 1 4 43 -19 54 -33 15 -6 -15 -7 -14 -4 7 2 19 -4 34 -20 49
-13 13 -24 18 -24 12 0 -6 7 -16 15 -23 8 -7 15 -18 15 -24 0 -7 -4 -6 -9 2
-4 8 -12 12 -17 10 -5 -1 -9 9 -9 23 -1 15 -7 35 -15 45 -9 12 -5 11 11 -4 22
-19 28 -20 37 -9 7 8 8 18 4 22 -4 5 -1 5 6 1 7 -4 9 -13 5 -19 -13 -22 -11
-35 8 -53 10 -9 19 -12 19 -6 0 6 -4 13 -9 16 -10 7 -9 31 2 42 4 4 1 15 -5
24 -7 9 -2 5 12 -10 14 -14 37 -25 50 -25 14 0 25 -5 25 -12 0 -6 3 -15 8 -19
4 -4 7 2 7 13 0 25 -19 41 -42 38 -9 -2 -29 10 -44 26 -15 15 -32 26 -37 22
-6 -4 -7 -1 -3 6 5 7 11 10 14 7 3 -3 12 0 21 7 14 10 14 10 4 -4 -11 -13 -9
-19 10 -36 12 -10 27 -19 32 -19 18 2 35 17 30 26 -3 5 0 12 7 16 7 4 10 4 6
-1 -4 -4 -3 -14 4 -22 7 -9 8 -13 1 -11 -6 2 -11 -1 -12 -7 -1 -5 7 -10 17
-10 9 0 17 6 17 13 0 7 5 16 10 20 10 7 15 22 20 60 1 12 5 25 8 29 7 6 1 -52
-6 -64 -3 -4 2 -15 11 -22 14 -13 15 -12 10 7 -4 12 -2 24 2 27 4 3 7 13 5 23
-1 9 0 12 2 6 2 -6 14 -16 26 -23 21 -11 21 -11 -3 -5 -22 6 -23 5 -11 -9 7
-9 16 -15 20 -13 4 3 7 -4 7 -14 0 -10 -6 -16 -13 -13 -7 3 -11 9 -8 13 3 5 1
11 -5 15 -5 3 -10 -1 -10 -9 0 -20 32 -37 49 -27 11 7 11 10 0 15 -8 3 -6 5 6
3 13 -1 20 -10 20 -24 0 -13 4 -22 9 -22 5 0 13 -5 18 -13 6 -8 7 -5 2 12 -6
22 -5 23 9 11 9 -7 15 -17 12 -20 -2 -4 2 -8 9 -8 11 0 12 4 3 19 -7 10 -15
18 -20 18 -4 0 -6 4 -2 10 6 10 36 2 32 -8 -1 -4 2 -9 7 -12 16 -9 16 37 1 50
-8 7 -15 9 -15 5 0 -3 -12 3 -26 14 -15 11 -30 18 -35 15 -5 -3 -9 0 -9 6 0
10 -135 77 -168 82 -9 2 -20 7 -23 11 -3 4 -64 27 -135 52 -129 43 -296 84
-429 106 -71 11 -550 21 -615 13z m1187 -216 c-3 -8 -6 -5 -6 6 -1 11 2 17 5
13 3 -3 4 -12 1 -19z m-51 -10 c4 -7 4 -10 -1 -6 -4 4 -15 2 -24 -5 -14 -11
-14 -10 -2 6 16 20 18 21 27 5z m85 -5 c13 -16 12 -17 -3 -4 -10 7 -18 15 -18
17 0 8 8 3 21 -13z m30 -6 c-10 -9 -11 -8 -5 6 3 10 9 15 12 12 3 -3 0 -11 -7
-18z m-53 -10 c-1 -3 7 -17 20 -30 18 -19 21 -27 10 -33 -7 -4 -10 -4 -6 1 13
14 -13 37 -27 25 -9 -7 -16 -6 -24 4 -8 10 -9 16 -1 21 6 4 9 2 8 -3 -2 -6 2
-10 7 -11 6 0 9 9 9 20 -1 11 1 18 3 15 3 -2 3 -7 1 -9z m150 -13 c12 -8 20
-20 17 -25 -4 -5 -1 -9 4 -9 6 0 11 6 11 13 0 8 4 7 10 -3 5 -8 10 -11 10 -6
0 5 8 2 18 -7 9 -8 21 -16 27 -16 5 0 11 -5 13 -11 3 -9 -1 -9 -16 -1 -17 9
-24 7 -43 -17 -20 -25 -22 -26 -16 -4 4 16 0 26 -14 35 -10 6 -19 19 -19 28 0
9 -10 21 -22 27 -13 6 -18 11 -13 11 6 1 21 -6 33 -15z m-351 -9 c0 -8 -4 -12
-9 -9 -5 3 -6 10 -3 15 9 13 12 11 12 -6z m250 -2 c0 -9 -4 -10 -14 -2 -7 6
-13 12 -13 14 0 1 6 2 13 2 8 0 14 -6 14 -14z m-67 -48 c0 -4 -9 4 -20 18 -11
14 -20 28 -20 32 0 4 9 -4 20 -18 11 -14 20 -28 20 -32z m-135 36 c3 -5 2 -12
-3 -15 -5 -3 -9 1 -9 9 0 17 3 19 12 6z m106 -28 c13 -16 12 -17 -3 -4 -10 7
-18 15 -18 17 0 8 8 3 21 -13z m-82 -10 c14 10 14 10 4 -4 -7 -9 -10 -19 -6
-22 3 -4 4 -7 1 -7 -3 0 -13 10 -24 23 -10 12 -12 16 -4 10 11 -10 17 -10 29
0z m-94 -25 c5 4 5 1 1 -6 -6 -10 -11 -10 -22 -1 -8 6 -14 14 -14 16 0 3 6 0
13 -6 8 -6 18 -7 22 -3z m381 -29 c10 -8 11 -15 4 -24 -8 -9 -8 -15 0 -20 6
-3 7 -11 4 -17 -4 -6 -13 4 -20 22 -13 30 -38 37 -40 12 -1 -7 -2 -16 -3 -22
0 -5 -7 -7 -15 -4 -8 3 -19 -4 -26 -16 -6 -12 -14 -19 -17 -16 -3 3 11 24 31
47 19 23 33 46 30 50 -7 12 35 2 52 -12z m-366 7 c0 -2 -6 -9 -14 -15 -11 -9
-16 -9 -22 0 -4 7 -3 9 4 5 6 -3 13 -2 17 4 6 10 15 14 15 6z m11 -20 c-8 -10
-9 -16 -1 -21 5 -3 10 -11 10 -18 0 -6 -6 -2 -14 9 -13 17 -6 44 11 44 3 0 0
-6 -6 -14z m26 -11 c0 -8 -4 -12 -9 -9 -5 3 -6 10 -3 15 9 13 12 11 12 -6z
m-80 -10 c0 -8 -4 -12 -9 -9 -5 3 -6 10 -3 15 9 13 12 11 12 -6z m-67 1 c0 -2
-8 -10 -17 -17 -16 -13 -17 -12 -4 4 13 16 21 21 21 13z m90 -21 c-7 -8 -7
-15 -1 -19 5 -3 11 -3 14 1 2 5 3 3 1 -3 -1 -5 7 -21 17 -35 17 -23 19 -23 19
-3 0 11 -5 25 -12 32 -9 9 -9 12 0 12 6 0 15 -15 20 -32 4 -18 11 -32 15 -30
4 1 16 2 27 2 14 0 18 5 13 17 -5 12 -2 15 10 10 13 -5 17 -1 18 16 l2 22 4
-22 c2 -13 8 -23 12 -23 4 0 16 -7 27 -16 17 -14 17 -15 1 -10 -14 4 -22 -3
-33 -29 -16 -39 -23 -45 -21 -15 1 11 5 20 9 20 4 0 8 7 8 15 0 8 6 15 13 15
8 0 7 3 -3 9 -16 11 -33 4 -25 -10 4 -5 3 -15 -2 -21 -8 -13 -9 -18 -12 -39 0
-5 -5 -8 -10 -4 -15 9 -22 -11 -12 -37 9 -24 -9 -65 -22 -51 -10 10 -8 25 2
18 5 -3 12 -1 16 4 3 6 -3 8 -15 6 -16 -3 -20 1 -20 21 0 14 4 22 10 19 6 -3
10 -2 10 3 0 6 -7 13 -16 16 -10 4 -13 2 -8 -6 4 -7 3 -8 -4 -4 -8 5 -10 2 -6
-9 8 -21 -4 -67 -16 -60 -6 4 -23 9 -38 11 -25 5 -26 4 -8 -9 13 -10 15 -16 8
-21 -7 -4 -12 -1 -12 6 0 9 -3 9 -10 -2 -8 -11 -9 -8 -6 13 3 18 0 27 -9 27
-10 0 -12 -7 -5 -30 7 -23 4 -35 -11 -54 -10 -13 -19 -28 -19 -33 0 -15 -46
-73 -53 -66 -4 3 -11 -6 -16 -21 -12 -30 -22 -35 -18 -8 1 9 -2 17 -8 17 -5 0
-9 -9 -7 -20 4 -27 -17 -6 -22 22 -4 19 0 21 27 19 46 -4 68 10 62 37 -6 22
17 55 40 56 6 1 11 20 11 44 1 30 -5 49 -20 65 -13 14 -16 22 -7 20 7 -2 16 3
19 11 3 9 0 11 -9 6 -8 -5 -11 -4 -6 0 4 5 -3 19 -15 33 -16 16 -18 23 -8 20
8 -2 14 3 12 10 -1 8 2 11 8 7 8 -5 8 -11 0 -20 -7 -8 -7 -15 -1 -19 5 -4 13
-1 16 4 5 8 13 6 24 -4 20 -18 32 -12 23 12 -5 15 -3 15 12 -1 17 -17 19 -17
31 0 15 20 1 58 -17 47 -6 -4 -8 -3 -4 4 3 6 2 14 -4 17 -8 5 -8 11 -1 19 6 7
7 17 3 21 -4 5 -1 5 6 1 10 -6 10 -11 2 -21z m-39 -2 c13 -16 12 -17 -3 -4
-10 7 -18 15 -18 17 0 8 8 3 21 -13z m-8 -39 c-3 -8 -7 -14 -10 -14 -3 0 -3 6
0 14 3 7 0 20 -6 27 -10 11 -9 11 5 0 9 -7 14 -19 11 -27z m130 30 c-7 -3 -9
-13 -6 -22 4 -14 3 -14 -5 -2 -12 16 -7 30 11 29 9 0 9 -2 0 -5z m-158 -14 c3
-6 -1 -7 -9 -4 -18 7 -21 14 -7 14 6 0 13 -4 16 -10z m176 -13 c-10 -9 -11 -8
-5 6 3 10 9 15 12 12 3 -3 0 -11 -7 -18z m-118 -7 c3 -11 1 -18 -3 -15 -5 3
-14 -3 -20 -12 -6 -10 -9 -11 -6 -3 3 8 9 23 12 33 8 22 10 22 17 -3z m-113 4
c0 -8 -19 -13 -24 -6 -3 5 1 9 9 9 8 0 15 -2 15 -3z m11 -17 c-10 -9 -11 -8
-5 6 3 10 9 15 12 12 3 -3 0 -11 -7 -18z m365 -5 c0 -10 -6 -19 -13 -19 -8 0
-9 6 -2 19 5 10 11 18 12 18 2 0 3 -8 3 -18z m-245 -15 c-10 -9 -11 -8 -5 6 3
10 9 15 12 12 3 -3 0 -11 -7 -18z m96 17 c-3 -3 -12 -4 -19 -1 -8 3 -5 6 6 6
11 1 17 -2 13 -5z m-271 -29 c1 -8 -1 -13 -6 -10 -4 3 -13 -2 -20 -10 -7 -8
-18 -15 -24 -15 -6 0 -3 5 7 11 9 6 15 15 11 20 -3 5 0 8 8 7 7 -2 12 4 10 12
-2 8 0 11 4 7 4 -4 9 -14 10 -22z m-106 11 c0 -2 -8 -10 -17 -17 -16 -13 -17
-12 -4 4 13 16 21 21 21 13z m60 -9 c0 -2 -10 -13 -23 -25 -18 -17 -24 -19
-24 -8 0 8 4 13 8 11 3 -3 12 2 19 10 12 14 20 19 20 12z m71 -21 c-6 -7 -7
-17 -3 -21 4 -5 1 -5 -6 -1 -9 6 -10 11 -3 20 6 7 7 17 3 21 -4 5 -1 5 6 1 9
-6 10 -11 3 -20z m-39 -18 c-9 -9 -9 -15 1 -27 11 -14 10 -14 -6 -2 -13 10
-15 17 -6 27 6 8 14 14 17 14 3 0 1 -5 -6 -12z m-56 -30 c-1 -14 4 -22 12 -20
8 1 11 -2 7 -8 -10 -16 -34 7 -30 28 4 22 4 22 9 22 2 0 3 -10 2 -22z m73 -16
c14 12 15 11 3 -4 -8 -10 -19 -16 -25 -15 -7 1 -11 -7 -10 -18 1 -11 0 -14 -3
-7 -5 10 -9 10 -20 1 -16 -13 -10 -30 9 -25 7 1 9 1 4 -1 -4 -3 -4 -10 -1 -16
4 -7 -9 3 -28 21 -19 18 -37 30 -41 27 -4 -3 -5 -2 -2 2 8 10 36 13 30 3 -13
-20 14 -17 34 4 19 20 20 24 6 36 -8 7 -15 17 -15 23 0 5 9 -2 21 -17 18 -23
23 -25 38 -14z m-122 -7 c0 -8 -4 -12 -9 -9 -5 3 -6 10 -3 15 9 13 12 11 12
-6z m-48 -9 c9 -11 9 -16 -1 -22 -7 -4 -10 -4 -6 1 4 4 3 14 -3 22 -6 7 -9 13
-6 13 2 0 10 -6 16 -14z m-24 -15 c3 -5 2 -12 -3 -15 -5 -3 -9 1 -9 9 0 17 3
19 12 6z m418 -22 c-6 -6 -9 -19 -6 -28 5 -13 2 -12 -18 4 -13 11 -21 16 -17
11 5 -5 -3 -24 -17 -41 -13 -18 -21 -36 -17 -41 4 -5 -4 0 -17 11 -14 11 -22
15 -18 9 3 -6 0 -20 -9 -30 -14 -18 -15 -18 -8 6 8 28 38 71 51 71 15 1 33 21
27 31 -4 6 3 5 15 -1 17 -10 22 -9 27 4 4 9 9 13 12 10 3 -3 1 -10 -5 -16z
m-446 -4 c0 -8 -4 -12 -9 -9 -5 3 -6 10 -3 15 9 13 12 11 12 -6z m43 1 c0 -2
-8 -10 -17 -17 -16 -13 -17 -12 -4 4 13 16 21 21 21 13z m59 -34 c16 -22 17
-29 5 -29 -7 0 -12 3 -9 5 3 3 -2 16 -10 29 -22 33 -10 29 14 -5z m-24 -24
c-3 -12 -10 -26 -16 -32 -9 -8 -9 -6 -2 9 11 24 11 35 -2 55 -7 13 -6 13 7 2
9 -7 15 -23 13 -34z m-30 4 c-2 -9 -4 -19 -5 -22 -1 -3 -2 -9 -1 -13 1 -5 -3
-6 -9 -2 -7 4 -8 11 -2 18 5 7 8 20 7 30 -2 9 0 15 5 12 5 -3 7 -13 5 -23z
m-94 1 c13 -16 12 -17 -3 -4 -10 7 -18 15 -18 17 0 8 8 3 21 -13z m41 3 c7 4
8 2 4 -5 -9 -13 -26 -5 -25 12 0 9 2 8 6 -1 2 -6 10 -9 15 -6z m-55 -38 c4
-28 -6 -18 -12 12 -2 12 -1 20 2 16 4 -4 8 -16 10 -28z m69 -9 c5 0 9 -5 9
-12 0 -6 4 -17 8 -23 3 -6 -3 -20 -16 -30 l-22 -19 18 22 c11 13 14 23 8 27
-6 4 -8 13 -4 22 3 9 0 14 -7 12 -7 -2 -15 4 -17 12 -4 12 -3 12 5 2 5 -8 13
-13 18 -13z m-171 2 c3 -5 2 -12 -3 -15 -5 -3 -9 1 -9 9 0 17 3 19 12 6z m22
-26 c0 -8 -4 -12 -9 -9 -5 3 -6 10 -3 15 9 13 12 11 12 -6z m68 6 c3 -5 2 -12
-3 -15 -5 -3 -9 1 -9 9 0 17 3 19 12 6z m60 0 c3 -5 2 -12 -3 -15 -5 -3 -9 1
-9 9 0 17 3 19 12 6z m-170 -10 c3 -5 2 -12 -3 -15 -5 -3 -9 1 -9 9 0 17 3 19
12 6z m75 -36 c0 -5 -5 -3 -10 5 -5 8 -10 20 -10 25 0 6 5 3 10 -5 5 -8 10
-19 10 -25z m-53 10 c0 -8 -4 -12 -9 -9 -5 3 -6 10 -3 15 9 13 12 11 12 -6z
m28 -4 c3 -5 2 -12 -3 -15 -5 -3 -9 1 -9 9 0 17 3 19 12 6z m-50 -10 c3 -5 2
-12 -3 -15 -5 -3 -9 1 -9 9 0 17 3 19 12 6z m360 -32 c-3 -21 2 -32 16 -40 11
-5 17 -15 13 -20 -10 -16 -35 13 -45 52 l-9 34 4 -37 c4 -35 3 -36 -15 -25
-20 12 -26 37 -10 37 5 0 12 9 16 19 10 31 34 14 30 -20z m-335 17 c0 -2 -8
-10 -17 -17 -16 -13 -17 -12 -4 4 13 16 21 21 21 13z m-57 -38 c-9 -10 -12
-18 -8 -18 5 0 -4 -13 -20 -30 -16 -16 -30 -29 -31 -27 -4 4 -4 17 0 15 2 -2
13 6 25 16 16 15 18 22 9 33 -9 11 -8 13 3 11 8 -2 13 2 12 8 -1 6 5 11 13 11
11 0 11 -4 -3 -19z m-63 -34 c0 -8 -19 -13 -24 -6 -3 5 1 9 9 9 8 0 15 -2 15
-3z m75 -11 c-1 -10 3 -25 9 -33 9 -13 9 -13 -6 -2 -13 10 -16 26 -9 50 4 11
9 -2 6 -15z m-110 -2 c3 -5 2 -12 -3 -15 -5 -3 -9 1 -9 9 0 17 3 19 12 6z m19
-29 c3 -5 -1 -9 -9 -9 -8 0 -12 4 -9 9 3 4 7 8 9 8 2 0 6 -4 9 -8z m-1487
-1127 c0 -8 -4 -12 -9 -9 -5 3 -6 10 -3 15 9 13 12 11 12 -6z m-24 -65 c3 -11
2 -22 -2 -24 -4 -3 -8 6 -9 20 -2 29 4 31 11 4z m-8 -68 c-3 -3 3 -11 13 -18
16 -12 16 -12 -3 -11 -12 1 -19 -3 -17 -11 1 -8 -2 -11 -8 -7 -8 5 -8 11 -1
19 7 8 7 16 0 23 -6 6 -5 10 6 10 8 0 13 -3 10 -5z m2 -149 c1 -22 -1 -24 -8
-10 -6 9 -7 22 -4 27 9 14 10 13 12 -17z m3 -110 c0 -19 -13 -9 -16 12 -1 8 2
13 7 9 5 -3 9 -12 9 -21z"/>
<path d="M8821 7923 c-1 -18 13 -23 29 -11 12 8 12 9 -2 5 -9 -3 -19 -1 -22 6
-3 9 -5 9 -5 0z"/>
<path d="M8431 7702 c-5 -10 -7 -25 -6 -35 2 -9 -1 -15 -5 -12 -5 3 -11 1 -15
-5 -3 -6 4 -11 17 -11 17 -1 18 -3 6 -6 -10 -2 -18 -9 -18 -14 0 -6 4 -8 9 -4
5 3 13 0 17 -6 4 -8 3 -9 -4 -5 -7 4 -12 2 -12 -4 0 -7 6 -10 13 -7 6 2 12 15
12 28 0 34 12 48 37 44 11 -3 28 0 37 5 9 5 12 10 7 10 -5 0 -3 7 4 15 7 9 10
18 6 22 -3 3 -6 2 -6 -3 0 -5 -12 -9 -27 -8 -16 1 -28 3 -28 4 0 1 -8 3 -18 5
-9 2 -21 -4 -26 -13z m71 -7 c12 2 15 -2 10 -13 -4 -11 -7 -12 -10 -4 -3 10
-7 10 -18 1 -8 -6 -14 -10 -15 -8 -7 35 -6 39 4 31 7 -5 20 -8 29 -7z m-52
-20 c0 -8 -4 -15 -10 -15 -5 0 -7 7 -4 15 4 8 8 15 10 15 2 0 4 -7 4 -15z"/>
<path d="M8337 7693 c-4 -3 -2 -12 4 -20 9 -9 8 -17 0 -27 -13 -15 -4 -24 42
-44 27 -12 28 -11 22 10 -9 30 -9 30 0 51 9 22 -1 35 -17 19 -9 -9 -16 -8 -28
3 -9 8 -20 12 -23 8z m55 -29 c-5 -9 -8 -26 -5 -38 3 -19 3 -19 -6 2 -11 24
-27 31 -17 7 3 -8 1 -15 -4 -15 -13 0 -13 21 0 40 9 13 10 13 10 0 1 -12 3
-11 11 3 5 9 12 17 15 17 3 0 1 -7 -4 -16z"/>
<path d="M8306 7485 c-9 -26 -7 -32 5 -12 6 10 9 21 6 23 -2 3 -7 -2 -11 -11z"/>
<path d="M8383 7528 c3 -9 1 -19 -6 -22 -9 -3 -9 -5 0 -5 18 -1 23 13 11 29
-8 12 -9 12 -5 -2z"/>
<path d="M8695 7902 c-17 -12 -17 -35 -1 -29 8 3 17 1 20 -6 2 -7 4 -2 2 10
-3 27 -9 34 -21 25z"/>
<path d="M8923 7892 c2 -12 6 -24 10 -28 3 -4 4 4 2 16 -6 30 -16 40 -12 12z"/>
<path d="M8951 7884 c0 -5 13 -19 29 -32 22 -17 30 -19 36 -10 4 7 3 10 -1 5
-5 -4 -21 5 -37 20 -15 15 -28 23 -27 17z"/>
<path d="M8559 7870 c0 -3 -2 -13 -4 -22 -2 -10 0 -20 5 -23 12 -8 19 20 9 36
-5 8 -9 12 -10 9z"/>
<path d="M8906 7851 c-3 -4 4 -17 17 -27 22 -19 22 -19 4 2 -9 11 -14 24 -10
27 3 4 4 7 0 7 -3 0 -8 -4 -11 -9z"/>
<path d="M8950 7856 c0 -2 8 -10 18 -17 15 -13 16 -12 3 4 -13 16 -21 21 -21
13z"/>
<path d="M8610 7841 c0 -6 4 -12 8 -15 5 -3 9 1 9 9 0 8 -4 15 -9 15 -4 0 -8
-4 -8 -9z"/>
<path d="M8930 7846 c0 -2 8 -10 18 -17 15 -13 16 -12 3 4 -13 16 -21 21 -21
13z"/>
<path d="M8854 7804 c1 -13 5 -26 8 -29 4 -4 5 1 4 12 -2 10 0 23 5 29 5 6 4
11 -5 11 -7 0 -12 -10 -12 -23z"/>
<path d="M8899 7817 c6 -8 7 -18 3 -22 -4 -5 -1 -5 6 -1 10 6 10 11 1 22 -6 8
-14 14 -16 14 -3 0 0 -6 6 -13z"/>
<path d="M8919 7783 c-13 -16 -12 -17 4 -4 9 7 17 15 17 17 0 8 -8 3 -21 -13z"/>
<path d="M8809 7763 l-24 -28 28 24 c15 14 27 26 27 28 0 8 -8 1 -31 -24z"/>
<path d="M8883 7783 c4 -3 1 -13 -6 -22 -11 -14 -10 -14 5 -2 16 12 16 31 1
31 -4 0 -3 -3 0 -7z"/>
<path d="M8607 7767 c-7 -20 17 -24 29 -5 4 6 3 8 -4 4 -5 -3 -12 -1 -14 6 -3
8 -7 6 -11 -5z"/>
<path d="M8763 7751 c0 -11 5 -18 9 -15 4 3 5 11 1 19 -7 21 -12 19 -10 -4z"/>
<path d="M8820 7745 c-12 -13 -27 -22 -33 -18 -6 4 -7 1 -2 -6 5 -9 15 -6 34
13 15 15 31 23 36 19 4 -5 5 -2 1 5 -9 16 -9 16 -36 -13z"/>
<path d="M8895 7751 c-3 -5 -2 -12 3 -15 5 -3 9 1 9 9 0 17 -3 19 -12 6z"/>
<path d="M8875 7721 c-3 -5 -2 -12 3 -15 5 -3 9 1 9 9 0 17 -3 19 -12 6z"/>
<path d="M8749 7710 c-3 -20 -4 -25 -13 -40 -7 -12 -6 -13 4 -3 13 12 25 53
15 53 -3 0 -6 -4 -6 -10z"/>
<path d="M8889 7683 c-13 -16 -12 -17 4 -4 9 7 17 15 17 17 0 8 -8 3 -21 -13z"/>
<path d="M8855 7670 c10 -11 20 -20 23 -20 3 0 -3 9 -13 20 -10 11 -20 20 -23
20 -3 0 3 -9 13 -20z"/>
<path d="M8753 7645 c0 -8 4 -12 9 -9 5 3 6 10 3 15 -9 13 -12 11 -12 -6z"/>
<path d="M8710 7645 c0 -2 6 -8 13 -14 10 -8 14 -7 14 2 0 8 -6 14 -14 14 -7
0 -13 -1 -13 -2z"/>
<path d="M8655 7621 c-3 -5 -1 -12 5 -16 6 -4 7 -11 4 -17 -4 -7 -2 -8 5 -4 8
6 9 12 2 20 -6 7 -8 16 -4 19 3 4 4 7 0 7 -3 0 -8 -4 -12 -9z"/>
<path d="M8236 7572 c-3 -6 2 -13 11 -16 12 -5 14 -9 5 -18 -14 -14 -16 -28
-3 -28 5 0 11 8 15 18 3 9 9 24 12 32 4 8 3 12 -1 8 -5 -4 -14 -3 -21 3 -7 6
-14 6 -18 1z"/>
<path d="M8310 7571 c0 -6 4 -13 10 -16 6 -3 7 1 4 9 -7 18 -14 21 -14 7z"/>
<path d="M8613 7561 c0 -11 5 -18 9 -15 4 3 5 11 1 19 -7 21 -12 19 -10 -4z"/>
<path d="M8520 7568 c0 -3 6 -11 14 -17 10 -9 17 -7 27 6 12 16 12 17 -2 6
-12 -10 -18 -10 -27 -1 -7 7 -12 9 -12 6z"/>
<path d="M8219 7529 c-9 -18 -7 -25 9 -42 21 -20 26 -7 8 21 -4 7 -2 19 4 27
8 10 9 15 2 15 -6 0 -16 -10 -23 -21z"/>
<path d="M8513 7535 c0 -8 4 -12 9 -9 5 3 6 10 3 15 -9 13 -12 11 -12 -6z"/>
<path d="M8676 7540 c5 -8 9 -18 9 -22 0 -3 3 -9 7 -13 3 -4 5 0 4 9 -1 9 -8
22 -16 29 -10 10 -11 9 -4 -3z"/>
<path d="M8713 7535 c0 -8 4 -12 9 -9 5 3 6 10 3 15 -9 13 -12 11 -12 -6z"/>
<path d="M8593 7525 c0 -8 4 -12 9 -9 5 3 6 10 3 15 -9 13 -12 11 -12 -6z"/>
<path d="M8545 7501 c-3 -5 -2 -12 3 -15 5 -3 9 1 9 9 0 17 -3 19 -12 6z"/>
<path d="M8619 7473 c-13 -16 -12 -17 4 -4 16 13 21 21 13 21 -2 0 -10 -8 -17
-17z"/>
<path d="M8427 7455 c-4 -8 -3 -16 1 -19 4 -3 9 4 9 15 2 23 -3 25 -10 4z"/>
<path d="M8125 7450 c-3 -6 -17 -8 -31 -6 -13 3 -22 1 -19 -3 2 -5 -4 -20 -15
-33 -11 -14 -17 -28 -13 -31 3 -4 0 -13 -7 -22 -10 -12 -16 -13 -29 -3 -14 11
-14 11 -4 -2 6 -9 9 -20 5 -26 -9 -12 -67 -12 -67 1 0 19 -16 35 -28 28 -17
-11 -38 -13 -32 -3 3 5 1 11 -4 14 -13 8 -40 -31 -37 -52 4 -24 22 -11 18 13
-1 12 1 15 5 9 5 -6 16 -10 26 -8 9 1 15 -2 12 -6 -3 -5 -1 -12 5 -15 6 -4 8
-14 6 -23 -3 -10 -1 -24 4 -32 7 -11 10 -11 10 -2 0 7 5 10 10 7 6 -4 8 -11 5
-16 -4 -5 -1 -9 4 -9 6 0 11 5 11 10 0 7 6 7 18 1 13 -7 23 -6 32 2 10 10 12
8 7 -5 -4 -10 -3 -17 1 -17 4 1 9 0 12 -1 25 -9 38 -6 33 8 -4 10 -3 14 2 10
4 -4 14 -3 22 3 15 13 18 -1 3 -19 -5 -7 -3 -6 6 2 15 13 15 16 1 36 -13 19
-15 19 -21 4 -4 -9 -9 -15 -11 -12 -3 3 1 20 9 39 9 19 15 27 16 18 0 -9 9
-28 20 -41 10 -14 16 -29 12 -33 -4 -5 -1 -5 6 -1 9 6 10 11 3 20 -6 7 -7 17
-3 21 4 5 1 5 -5 1 -15 -9 -18 10 -3 19 10 6 37 -51 32 -68 -1 -5 2 -6 8 -2 6
3 8 10 5 14 -6 10 -22 53 -25 66 -1 6 -8 17 -15 25 -9 10 -11 21 -5 29 4 8 4
25 -1 38 -11 30 -11 33 1 33 6 0 9 -3 9 -7 -4 -22 2 -43 10 -38 6 3 6 17 1 34
-4 16 -6 32 -2 35 3 3 3 6 -1 6 -3 0 -9 -5 -12 -10z m-21 -64 c2 -25 8 -52 15
-59 9 -11 8 -17 -4 -27 -12 -10 -15 -10 -15 3 0 32 -20 27 -35 -9 -8 -20 -13
-39 -11 -43 3 -4 1 -13 -4 -20 -6 -11 -11 -9 -20 8 -9 17 -14 20 -25 11 -11
-9 -17 -6 -31 15 -9 14 -23 24 -30 21 -8 -3 -14 -2 -15 2 0 4 -2 18 -5 32 -3
18 -2 21 5 10 5 -8 8 -17 6 -20 -2 -3 8 -11 22 -17 20 -10 24 -9 20 1 -3 7 1
13 8 13 10 0 11 -5 4 -18 -15 -28 -11 -34 10 -13 10 10 17 22 14 27 -2 4 1 7
7 7 6 0 9 4 6 8 -3 5 6 15 19 22 13 7 22 17 19 22 -8 13 6 49 17 43 5 -4 9 4
9 16 0 40 12 12 14 -35z m-144 -116 c0 -5 -4 -10 -10 -10 -5 0 -10 5 -10 10 0
6 5 10 10 10 6 0 10 -4 10 -10z"/>
<path d="M8082 7391 c-7 -4 -11 -18 -10 -32 2 -15 -2 -23 -9 -22 -7 2 -18 -7
-24 -20 -6 -12 -21 -33 -33 -47 -11 -14 -14 -19 -6 -13 11 10 18 9 34 -5 20
-16 20 -16 7 1 -11 14 -11 17 0 17 11 0 11 2 -1 10 -13 8 -12 10 3 10 9 0 17
6 17 13 0 7 5 18 12 25 9 9 16 8 32 -6 21 -17 21 -17 3 5 -11 12 -16 27 -11
34 4 8 3 10 -4 5 -7 -4 -12 -3 -12 3 0 5 6 11 13 14 6 2 10 7 7 10 -3 3 -11 2
-18 -2z"/>
<path d="M8420 7415 c8 -11 15 -21 16 -23 1 -2 5 5 8 15 4 9 4 14 0 10 -4 -4
-14 -1 -23 6 -14 11 -15 10 -1 -8z"/>
<path d="M8393 7405 c0 -8 4 -12 9 -9 5 3 6 10 3 15 -9 13 -12 11 -12 -6z"/>
<path d="M8495 7390 c10 -11 20 -20 23 -20 3 0 -3 9 -13 20 -10 11 -20 20 -23
20 -3 0 3 -9 13 -20z"/>
<path d="M8336 7381 c-3 -5 2 -15 12 -22 15 -12 16 -12 5 2 -7 9 -10 19 -6 22
3 4 4 7 0 7 -3 0 -8 -4 -11 -9z"/>
<path d="M8305 7360 c-4 -6 -1 -9 7 -8 7 2 12 -3 10 -10 -1 -8 2 -11 8 -7 8 5
7 11 -1 21 -14 17 -16 17 -24 4z"/>
<path d="M8345 7331 c-3 -5 -2 -12 3 -15 5 -3 9 1 9 9 0 17 -3 19 -12 6z"/>
<path d="M8255 7321 c-3 -5 -2 -12 3 -15 5 -3 9 1 9 9 0 17 -3 19 -12 6z"/>
<path d="M8305 7311 c-3 -5 -2 -12 3 -15 5 -3 9 1 9 9 0 17 -3 19 -12 6z"/>
<path d="M8184 7286 c1 -8 5 -18 8 -22 4 -3 5 1 4 10 -1 8 -5 18 -8 22 -4 3
-5 -1 -4 -10z"/>
<path d="M8235 7291 c-3 -5 -1 -12 5 -16 6 -4 8 -10 5 -15 -3 -5 -1 -11 4 -14
8 -5 8 15 1 34 -1 3 -2 8 -1 13 1 10 -7 9 -14 -2z"/>
<path d="M8339 7283 c-13 -16 -12 -17 4 -4 9 7 17 15 17 17 0 8 -8 3 -21 -13z"/>
<path d="M8211 7273 c1 -4 0 -10 -1 -13 -7 -18 -7 -41 0 -45 5 -3 7 3 5 12 -1
10 2 23 7 30 6 7 5 14 -2 18 -6 4 -10 3 -9 -2z"/>
<path d="M8305 7271 c-3 -5 -2 -12 3 -15 5 -3 9 1 9 9 0 17 -3 19 -12 6z"/>
<path d="M8363 7265 c0 -8 4 -12 9 -9 5 3 6 10 3 15 -9 13 -12 11 -12 -6z"/>
<path d="M8171 7216 c-9 -11 -9 -16 1 -22 7 -4 10 -4 6 1 -4 4 -3 14 3 22 6 7
9 13 6 13 -2 0 -10 -6 -16 -14z"/>
<path d="M8266 7203 c-6 -14 -5 -15 5 -6 7 7 10 15 7 18 -3 3 -9 -2 -12 -12z"/>
<path d="M8295 7201 c-3 -5 -2 -12 3 -15 5 -3 9 1 9 9 0 17 -3 19 -12 6z"/>
<path d="M8240 7186 c0 -2 8 -10 18 -17 15 -13 16 -12 3 4 -13 16 -21 21 -21
13z"/>
<path d="M3450 5725 l0 -445 527 0 c398 1 530 4 542 13 10 8 13 8 8 1 -5 -8 4
-12 28 -12 31 0 35 2 31 24 -3 13 -2 23 2 23 21 -3 23 4 7 29 -15 23 -15 25
-1 11 9 -8 18 -25 21 -37 2 -12 7 -28 10 -35 4 -6 0 -4 -8 6 -15 18 -32 10
-19 -9 11 -15 55 -11 59 6 4 12 3 13 -5 1 -8 -11 -11 -9 -17 9 -5 15 -1 28 13
43 14 16 19 34 18 70 -1 27 0 50 4 52 3 2 5 -18 5 -43 0 -33 5 -54 19 -69 18
-22 36 -22 36 -2 0 6 -4 8 -9 4 -14 -8 -26 15 -26 52 -1 24 2 29 12 22 6 -6 9
-18 6 -27 -5 -14 -4 -15 8 -4 11 10 11 16 1 32 -8 14 -9 21 0 26 6 4 8 3 4 -4
-3 -6 -2 -14 4 -17 6 -4 9 -22 6 -43 -5 -30 -4 -33 5 -19 15 26 18 50 7 63 -5
7 -7 18 -6 25 2 7 -2 13 -9 14 -6 0 -15 3 -19 7 -3 4 3 6 14 3 13 -2 26 3 32
13 5 9 10 12 10 6 0 -6 -3 -14 -7 -18 -8 -8 -15 -46 -8 -46 2 0 11 14 20 30 9
17 13 30 9 30 -4 0 -1 7 6 15 7 8 16 13 20 10 9 -6 70 61 70 76 0 6 -4 8 -8 5
-5 -3 -9 1 -9 9 0 11 4 12 14 3 8 -6 11 -19 7 -32 -6 -18 -5 -19 9 -7 16 13
15 20 -7 51 -6 9 -1 6 10 -6 33 -34 38 -15 7 20 -16 17 -24 28 -19 24 5 -5 15
-3 22 3 9 8 16 5 24 -11 8 -16 15 -19 24 -11 7 6 16 8 19 4 4 -3 7 -2 7 4 0
18 -13 23 -28 10 -13 -10 -14 -9 -7 3 5 8 10 25 11 38 0 12 4 25 8 29 4 4 5
-4 2 -19 -6 -35 18 -58 33 -30 6 11 7 23 3 27 -4 5 -2 5 5 2 8 -5 10 7 8 44
-2 28 -1 48 3 45 3 -4 7 -23 8 -44 3 -53 3 -54 13 -47 5 3 8 18 5 33 -3 20 -2
23 6 12 5 -8 10 -13 11 -10 6 34 8 43 12 46 3 3 4 -20 3 -50 -1 -31 2 -56 6
-56 9 0 9 0 12 67 0 29 7 58 13 64 9 9 9 16 3 24 -7 9 -5 17 7 26 16 13 17 12
5 -3 -9 -11 -9 -18 -3 -23 7 -4 5 -15 -5 -31 -9 -13 -14 -27 -11 -30 5 -5 47
57 47 70 0 4 -6 4 -12 0 -10 -5 -10 -4 -1 6 10 11 9 18 -5 34 -17 21 -17 21 5
3 20 -17 25 -58 9 -74 -3 -3 -1 -12 4 -19 18 -21 20 -52 3 -50 -9 0 -18 -6
-21 -14 -5 -13 -3 -13 11 -1 11 9 17 10 17 2 0 -10 -14 -15 -33 -12 -5 1 -6
-3 -2 -9 3 -6 12 -8 18 -4 7 3 5 -1 -4 -8 -9 -7 -19 -22 -22 -33 -3 -11 -4 2
-2 28 2 26 0 45 -5 42 -5 -3 -9 -14 -9 -25 -1 -11 -1 -29 -2 -40 0 -11 -4 -20
-9 -20 -4 0 -6 -19 -3 -42 4 -27 3 -39 -5 -35 -5 4 -8 16 -5 26 3 10 -2 32
-11 47 -10 19 -15 23 -16 12 0 -9 5 -20 10 -23 6 -3 10 -16 10 -28 -1 -19 -3
-18 -15 8 -14 30 -14 30 -9 3 4 -17 2 -28 -5 -28 -6 0 -8 8 -5 18 5 13 4 14
-4 3 -5 -7 -12 -9 -14 -5 -3 5 -3 2 -1 -6 2 -8 1 -11 -3 -7 -4 4 -14 2 -21 -5
-11 -9 -17 -9 -24 3 -7 10 -8 7 -6 -10 2 -14 9 -27 15 -29 7 -2 9 -8 6 -13 -3
-6 -12 -2 -21 8 -8 10 -12 13 -9 6 4 -6 2 -14 -4 -18 -6 -4 -7 -12 -3 -18 4
-7 -1 -6 -11 2 -15 13 -18 12 -23 -9 -6 -23 -7 -23 -15 -4 -5 13 -6 8 -3 -16
4 -27 3 -30 -4 -15 l-10 20 -1 -20 c-2 -14 -5 -10 -13 13 -8 26 -7 36 2 42 8
4 9 10 3 14 -12 7 -28 -13 -26 -34 0 -8 9 -31 19 -52 18 -36 15 -75 -5 -63 -5
3 -10 11 -10 16 0 6 5 7 10 4 6 -3 10 -1 10 4 0 6 -4 11 -10 11 -5 0 -7 8 -3
18 3 11 0 9 -11 -6 -10 -12 -22 -19 -28 -16 -7 4 -8 2 -4 -5 4 -6 12 -9 17 -6
5 4 9 1 9 -5 0 -7 -7 -9 -16 -6 -10 4 -13 2 -8 -6 5 -7 3 -8 -6 -3 -9 6 -11 4
-5 -5 6 -9 4 -11 -6 -5 -12 8 -12 6 0 -8 7 -10 9 -17 3 -17 -6 0 -12 3 -15 8
-2 4 -2 2 -1 -5 2 -7 -1 -15 -6 -18 -14 -9 -12 29 2 43 9 9 9 12 0 12 -14 0
-34 -35 -25 -44 3 -3 1 -6 -5 -6 -7 0 -12 -5 -12 -11 0 -6 7 -9 14 -6 10 4 13
1 9 -8 -3 -8 -10 -12 -16 -8 -5 3 -7 2 -4 -3 3 -6 2 -16 -4 -24 -7 -12 -9 -9
-10 10 l-1 25 -8 -25 -8 -25 -2 25 c-1 23 -2 23 -9 5 -5 -11 -4 -22 0 -23 5
-2 6 -9 2 -15 -4 -7 1 -6 10 2 14 11 17 11 17 0 0 -12 2 -12 9 0 7 11 10 11
15 0 3 -8 3 -4 0 9 -3 12 -3 22 1 22 3 0 10 -10 16 -22 l10 -23 -5 23 c-2 12
0 22 5 22 9 0 13 -16 10 -34 -1 -5 4 -4 12 2 8 7 17 8 21 4 4 -4 6 0 4 8 -2 8
2 14 9 13 7 -2 10 4 6 13 -5 13 -7 13 -15 2 -6 -9 -7 -4 -5 15 2 15 6 27 10
27 4 0 7 -2 6 -6 0 -3 6 -15 14 -27 8 -12 13 -30 11 -40 -1 -9 1 -15 6 -12 5
3 7 13 5 23 -1 9 6 27 17 38 13 15 16 24 8 29 -8 5 -8 11 1 21 7 8 12 29 11
47 -1 25 1 28 9 15 9 -17 8 -45 -3 -63 -4 -6 -2 -17 3 -25 9 -13 9 -13 7 0 -2
8 2 16 7 18 11 2 14 -17 6 -33 -8 -15 -10 -38 -3 -30 4 4 8 11 8 16 1 5 2 10
4 12 8 11 6 38 -5 47 -10 9 -11 18 -4 36 5 14 9 36 9 49 0 13 4 26 10 30 5 3
8 -9 6 -30 -2 -19 0 -38 5 -41 5 -3 8 -2 7 3 -2 4 2 9 7 11 6 1 10 -2 10 -7 0
-5 4 -13 8 -18 5 -4 8 -3 7 2 -5 22 1 29 11 15 9 -13 10 -13 6 0 -2 8 -9 15
-14 15 -16 0 -26 13 -30 37 -3 17 -1 19 12 8 8 -7 12 -17 8 -23 -3 -5 -1 -7 5
-3 6 3 18 -4 26 -16 9 -12 16 -17 16 -11 0 7 -5 15 -10 18 -6 4 -7 12 -3 18 4
7 8 23 8 37 1 38 19 25 21 -15 1 -19 -3 -32 -7 -29 -14 8 -10 -2 5 -15 12 -10
14 -7 11 19 -3 22 -1 29 8 23 9 -5 9 -3 0 9 -7 8 -11 17 -8 20 3 3 -1 11 -10
18 -8 7 -15 17 -15 23 0 6 11 0 25 -13 13 -12 22 -26 20 -31 -3 -4 0 -11 6
-15 7 -4 9 -3 6 3 -8 13 17 36 28 25 5 -4 5 -2 2 5 -4 6 0 19 9 27 8 9 10 16
4 16 -6 0 -13 -7 -16 -15 -4 -8 -10 -12 -15 -9 -5 3 -8 2 -7 -3 2 -4 -1 -9 -7
-10 -15 -4 -6 80 11 97 9 9 14 10 14 3 0 -7 -4 -15 -10 -18 -5 -3 -9 -17 -8
-30 2 -22 4 -23 18 -10 9 8 20 12 25 8 4 -5 4 -1 -1 7 -4 8 -9 20 -11 25 -1 6
-5 21 -8 35 -3 14 5 5 17 -20 12 -25 22 -53 23 -62 0 -9 3 -19 7 -23 3 -4 5 1
4 12 -2 10 2 24 8 32 8 11 8 13 -1 8 -8 -5 -18 5 -28 29 -18 45 -18 45 0 38 8
-4 13 -10 10 -14 -3 -5 -1 -11 5 -15 6 -4 7 -12 4 -18 -4 -7 -4 -9 1 -5 4 4
14 3 22 -3 11 -10 11 -15 1 -28 -12 -14 -11 -14 4 -2 10 7 15 18 11 25 -4 6
-8 16 -8 21 0 6 -6 10 -12 10 -7 0 -12 5 -10 10 1 6 5 9 9 8 4 -2 4 5 1 14 -4
10 -8 12 -10 6 -3 -7 -11 -9 -19 -6 -12 4 -12 7 3 18 10 7 20 12 24 10 17 -11
13 101 -5 126 -20 29 -21 4 -1 -31 8 -14 14 -32 14 -40 0 -8 -7 -1 -14 15 -11
24 -14 26 -15 10 -1 -18 -2 -18 -10 3 -6 13 -6 32 0 46 6 17 4 30 -6 44 -9 14
-11 23 -4 27 6 4 10 3 9 -2 -4 -15 13 -43 23 -37 5 3 5 11 0 17 -5 7 -9 23
-10 37 -1 18 1 21 8 11 4 -8 5 -21 2 -30 -5 -14 -3 -14 11 -2 9 7 14 18 10 25
-10 15 -13 40 -5 31 4 -4 7 -10 7 -13 0 -4 8 -18 18 -32 9 -13 17 -21 17 -16
0 5 7 3 15 -4 8 -7 15 -9 15 -4 0 4 -12 18 -27 29 -18 16 -24 26 -17 36 11 18
12 31 2 45 -4 6 -2 11 6 11 13 0 16 -40 3 -53 -4 -4 -7 -12 -7 -18 1 -6 9 0
20 13 11 12 17 28 13 34 -3 6 -1 7 5 3 6 -3 16 2 21 13 13 24 14 34 2 27 -11
-7 -8 20 3 31 4 4 7 3 5 -2 -4 -17 12 -45 23 -39 5 3 4 13 -4 22 -12 15 -11
16 5 3 12 -9 14 -17 7 -26 -5 -6 -7 -15 -3 -18 9 -9 23 -9 22 1 -4 22 3 34 16
29 8 -4 17 -2 20 3 4 6 -2 10 -12 11 -17 0 -17 1 0 8 21 8 22 19 1 43 -12 12
-12 18 -3 24 7 4 10 3 5 -4 -3 -6 -2 -13 4 -17 9 -6 14 7 11 28 0 4 4 6 10 5
6 -2 13 2 16 9 3 9 -235 12 -986 13 l-991 1 0 -446z m1929 361 c-3 -3 -11 5
-18 17 -13 21 -12 21 5 5 10 -10 16 -20 13 -22z m-48 1 c-10 -9 -11 -8 -5 6 3
10 9 15 12 12 3 -3 0 -11 -7 -18z m26 -12 c0 -8 -4 -12 -9 -9 -5 3 -6 10 -3
15 9 13 12 11 12 -6z m-130 -80 c0 -8 -4 -12 -9 -9 -5 3 -6 10 -3 15 9 13 12
11 12 -6z m-120 -70 c0 -8 -4 -12 -9 -9 -5 3 -6 10 -3 15 9 13 12 11 12 -6z
m-13 -71 c3 -8 2 -12 -4 -9 -6 3 -10 10 -10 16 0 14 7 11 14 -7z m-13 -21 c12
-16 12 -17 -2 -6 -9 7 -20 9 -24 5 -5 -4 -5 -1 -1 6 9 16 11 15 27 -5z m-30
-36 c-10 -9 -11 -8 -5 6 3 10 9 15 12 12 3 -3 0 -11 -7 -18z m149 -44 c0 -6
-14 -22 -31 -34 l-32 -22 18 26 c9 14 18 34 20 44 2 10 4 20 4 23 2 9 21 -25
21 -37z m-204 2 c-1 -8 -5 -17 -8 -21 -5 -4 -4 16 1 34 3 9 9 -1 7 -13z m-51
-4 c3 -5 2 -12 -3 -15 -5 -3 -9 1 -9 9 0 17 3 19 12 6z m-8 -46 c0 -8 -4 -12
-9 -9 -5 3 -6 10 -3 15 9 13 12 11 12 -6z m-77 -50 c0 -1 -10 -10 -22 -21 -14
-12 -18 -13 -10 -3 6 9 10 18 7 21 -3 2 2 5 10 5 8 0 15 -1 15 -2z m276 -20
c-3 -20 -16 -31 -16 -13 0 13 8 28 16 28 1 0 1 -7 0 -15z m-335 -32 c13 -16
12 -17 -3 -4 -17 13 -22 21 -14 21 2 0 10 -8 17 -17z m52 3 c3 -8 -6 -24 -21
-37 -14 -13 -21 -17 -14 -8 6 9 8 19 4 23 -4 4 0 6 8 4 10 -2 14 3 12 15 -3
20 4 23 11 3z m225 -21 c17 -19 17 -19 -5 -1 -13 11 -24 15 -25 10 -2 -14 -5
-28 -8 -34 -1 -3 -3 -18 -5 -35 -1 -16 -3 -32 -4 -34 0 -3 -11 4 -23 15 -37
33 -68 20 -68 -29 0 -29 -1 -30 -14 -11 -13 17 -15 18 -21 2 -4 -9 -4 -21 -1
-26 3 -5 -1 -20 -8 -34 -9 -16 -10 -30 -5 -35 6 -6 1 -17 -11 -28 -11 -10 -20
-13 -20 -7 0 22 -2 27 -12 40 -16 19 -36 -4 -34 -39 1 -17 -1 -32 -6 -35 -4
-3 -8 -2 -9 3 0 4 -2 19 -3 33 -2 14 2 28 8 32 6 4 11 13 11 20 1 7 6 12 13
11 7 -2 12 2 12 8 0 5 5 7 11 4 6 -4 8 -14 5 -24 -4 -9 3 -5 14 9 14 17 19 34
15 52 -3 17 0 27 6 25 6 -1 17 13 23 31 9 25 14 30 23 21 10 -10 14 -8 19 5 4
11 9 13 13 7 4 -6 12 -2 19 10 10 16 10 20 -3 25 -14 6 -14 8 1 18 24 18 72
13 92 -9z m-278 -24 c-5 -11 -15 -23 -21 -27 -6 -3 -3 5 6 20 20 30 30 35 15
7z m-20 3 c0 -8 -19 -13 -24 -6 -3 5 1 9 9 9 8 0 15 -2 15 -3z m-26 -23 c3 -5
-2 -15 -12 -22 -15 -12 -16 -12 -5 2 7 9 10 19 6 22 -3 4 -4 7 0 7 3 0 8 -4
11 -9z m-37 -16 c0 -8 -4 -12 -9 -9 -5 3 -6 10 -3 15 9 13 12 11 12 -6z m-12
-44 c3 -5 2 -12 -3 -15 -5 -3 -9 1 -9 9 0 17 3 19 12 6z m-80 -68 c-2 -10 -4
-20 -5 -23 -1 -3 -2 -9 -1 -13 1 -5 -3 -6 -9 -2 -6 3 -7 12 -3 18 4 7 8 15 9
20 3 14 4 17 8 17 2 0 3 -8 1 -17z m26 -17 c-6 -7 -9 -15 -6 -18 3 -3 -3 -11
-12 -19 -16 -13 -17 -12 -4 4 7 9 10 17 6 17 -4 0 -2 6 4 13 6 8 7 18 3 22 -4
5 -1 5 6 1 9 -6 10 -11 3 -20z m139 -55 c0 -5 -7 -11 -14 -14 -10 -4 -13 -1
-9 9 6 15 23 19 23 5z m-244 -27 c1 -9 0 -13 -4 -10 -3 4 -7 14 -8 22 -1 9 0
13 4 10 3 -4 7 -14 8 -22z m-35 -7 c-10 -9 -11 -8 -5 6 3 10 9 15 12 12 3 -3
0 -11 -7 -18z m56 -9 c-3 -8 -6 -5 -6 6 -1 11 2 17 5 13 3 -3 4 -12 1 -19z"/>
<path d="M5176 5743 c-6 -14 -5 -15 5 -6 7 7 10 15 7 18 -3 3 -9 -2 -12 -12z"/>
<path d="M4998 5594 c-4 -3 0 -17 7 -31 7 -14 11 -33 8 -42 -4 -13 -3 -13 5
-2 5 7 7 22 4 34 -3 13 -1 18 5 14 7 -5 9 1 5 15 -5 19 -7 20 -10 5 -2 -9 -8
-15 -13 -11 -5 3 -7 10 -4 15 7 10 2 12 -7 3z"/>
<path d="M4923 5505 c-3 -9 -3 -18 -1 -21 3 -3 8 4 11 16 6 23 -1 27 -10 5z"/>
<path d="M4866 5367 c3 -10 9 -15 12 -12 3 3 0 11 -7 18 -10 9 -11 8 -5 -6z"/>
<path d="M5425 6141 c-20 -26 -29 -84 -12 -78 6 2 13 9 15 17 3 9 0 10 -9 4
-11 -6 -12 -5 -2 8 7 8 11 17 8 20 -3 3 3 12 13 21 17 15 18 15 19 -5 1 -11
11 -29 22 -39 17 -16 20 -49 4 -49 -3 0 -3 6 0 14 6 16 -26 50 -36 39 -9 -9
-9 -24 1 -20 4 1 9 -2 10 -8 2 -5 8 -15 14 -22 5 -7 7 -16 4 -21 -3 -6 1 -15
9 -22 8 -7 12 -17 8 -24 -4 -6 1 -5 10 3 9 7 15 17 12 21 -3 5 -1 11 4 14 5 3
7 16 4 29 -4 19 -3 19 6 5 15 -22 9 -52 -14 -80 -11 -13 -13 -17 -5 -11 11 11
18 9 36 -8 16 -15 24 -17 29 -8 5 7 4 10 -2 6 -15 -9 -30 13 -27 41 1 12 2 28
3 36 1 9 9 13 21 11 19 -4 19 -2 5 18 -25 35 -17 44 10 12 14 -16 24 -25 23
-20 -2 6 2 10 7 10 6 0 9 -4 7 -8 -1 -5 2 -6 8 -2 7 4 4 15 -8 30 -10 13 -17
36 -16 53 3 41 -21 49 -41 14 -14 -24 -16 -24 -12 -4 3 12 2 22 -1 23 -4 0
-30 2 -58 2 -43 2 -54 -2 -69 -22z m71 10 c11 9 16 6 23 -12 5 -13 5 -28 1
-34 -4 -5 -7 -27 -6 -48 1 -21 -2 -41 -6 -43 -5 -3 -5 -11 -1 -17 4 -7 0 -6
-10 2 -14 11 -15 16 -3 40 14 27 11 51 -8 63 -6 4 -12 20 -12 35 -1 15 0 22 3
15 4 -10 8 -10 19 -1z m74 -22 c17 33 18 34 25 12 4 -12 4 -25 1 -28 -3 -3 -1
-13 4 -23 14 -26 -1 -33 -18 -9 -18 26 -39 11 -23 -18 7 -15 7 -20 -4 -20 -17
0 -41 50 -26 55 6 2 8 18 6 35 -5 32 -5 32 6 -3 l11 -35 18 34z"/>
<path d="M5490 6135 c-12 -14 -12 -18 1 -25 10 -7 15 -5 17 5 6 28 -3 38 -18
20z"/>
<path d="M5622 6125 c1 -20 9 -42 20 -51 14 -14 16 -20 6 -33 -10 -13 -10 -14
2 -4 14 13 23 44 12 40 -4 -1 -7 3 -7 8 0 6 4 9 8 7 5 -1 6 2 3 7 -3 5 3 20
14 33 15 19 16 25 4 25 -8 0 -12 -2 -9 -5 2 -3 -5 -18 -16 -34 -12 -16 -23
-27 -26 -24 -3 2 2 15 11 28 9 12 16 27 16 33 -1 5 -8 -1 -16 -15 -14 -24 -15
-24 -11 -2 3 12 1 22 -4 22 -4 0 -8 -16 -7 -35z"/>
<path d="M5699 6134 c-15 -16 -19 -24 -9 -22 10 2 15 -4 14 -20 -1 -12 1 -20
4 -17 10 10 11 35 1 41 -5 3 -7 10 -3 15 3 6 12 3 21 -8 13 -17 13 -17 4 3 -6
12 -7 24 -4 28 3 3 4 6 1 6 -2 0 -15 -12 -29 -26z"/>
<path d="M5743 6145 c0 -8 4 -12 9 -9 5 3 6 10 3 15 -9 13 -12 11 -12 -6z"/>
<path d="M5440 6130 c-8 -26 -7 -41 2 -32 6 6 8 16 5 24 -3 7 -6 11 -7 8z"/>
<path d="M5412 6051 c-23 -19 -38 -55 -20 -48 7 2 12 11 10 21 -2 9 2 16 7 16
6 0 10 -11 9 -25 -1 -13 -4 -22 -7 -20 -2 3 -10 0 -18 -6 -10 -9 -13 -8 -13 0
0 7 -6 9 -12 5 -10 -6 -10 -4 0 7 14 16 16 43 2 34 -6 -4 -8 -10 -5 -15 10
-17 -17 -22 -32 -7 -15 14 -19 12 -48 -26 -31 -40 -31 -42 -13 -57 16 -12 17
-20 9 -40 -9 -24 -12 -24 -15 3 -1 6 -7 11 -14 9 -7 -1 -15 5 -18 13 -5 12
-10 13 -20 4 -8 -6 -12 -15 -9 -19 3 -5 1 -11 -4 -15 -6 -3 0 -25 14 -51 19
-35 22 -51 14 -65 -11 -22 -15 -86 -6 -96 4 -3 7 1 7 11 0 11 5 15 13 10 10
-6 10 -4 0 7 -15 15 -18 63 -3 54 5 -3 7 -12 4 -19 -3 -7 2 -18 10 -25 8 -7
12 -20 9 -29 -3 -9 -3 -14 1 -10 4 3 8 13 10 21 1 8 10 26 20 41 13 21 20 25
31 16 14 -11 14 -27 2 -47 -4 -6 -2 -15 5 -19 7 -4 10 -4 6 1 -4 4 -3 14 3 22
6 7 8 13 4 13 -5 0 0 9 10 20 10 11 15 20 10 20 -4 0 -2 7 5 15 7 8 16 12 21
9 16 -10 9 3 -8 17 -10 7 -15 9 -11 5 11 -13 -11 -36 -28 -29 -7 3 -11 9 -8
14 3 5 11 6 17 3 7 -4 9 -4 5 1 -4 4 -3 14 3 22 6 7 8 13 5 13 -4 0 -1 10 6
23 12 22 14 28 17 48 0 5 5 8 10 5 11 -7 9 -25 -4 -46 -16 -25 -14 -38 8 -57
17 -14 19 -14 9 -1 -9 11 -10 18 -2 23 5 3 10 12 9 18 0 9 -2 8 -6 -1 -2 -6
-9 -9 -14 -6 -6 3 -5 11 2 20 9 11 15 11 25 3 8 -6 12 -15 9 -19 -3 -5 -1 -11
4 -15 6 -3 8 3 6 15 -2 11 1 22 6 25 12 8 2 25 -14 25 -8 0 -8 -3 2 -9 8 -5 9
-11 3 -15 -21 -13 -38 37 -18 53 19 16 59 -41 43 -60 -7 -7 -2 -5 11 5 22 19
30 32 13 21 -12 -7 -42 35 -35 47 3 4 10 6 15 2 5 -3 7 -9 4 -14 -3 -5 -1 -12
5 -15 6 -4 9 -3 8 2 -2 4 2 8 7 8 6 0 9 -4 7 -10 -2 -5 0 -7 4 -3 4 4 14 2 23
-4 12 -10 12 -7 -2 8 -9 11 -14 24 -11 27 4 4 13 -1 21 -11 13 -15 13 -15 3 6
-8 15 -15 20 -23 15 -11 -8 -19 -9 -44 -4 -5 1 -1 6 7 11 11 7 11 10 2 10 -7
0 -10 4 -7 10 3 5 -2 21 -11 35 -11 18 -13 25 -4 25 9 0 10 3 1 13 -6 8 -9 16
-6 19 13 13 -25 3 -43 -11z m33 -18 c-3 -9 1 -23 9 -32 17 -19 16 -46 -4 -64
-10 -10 -12 -9 -6 6 15 42 16 50 3 28 -8 -13 -16 -20 -19 -15 -6 12 -2 54 8
78 5 15 4 17 -6 11 -9 -5 -11 -4 -6 4 10 16 29 2 21 -16z m-115 -38 c5 3 16
-5 24 -17 9 -12 16 -17 16 -11 0 7 7 10 15 7 8 -4 15 -1 15 7 0 12 15 3 15 -9
0 -4 4 -13 9 -20 9 -14 -11 -45 -25 -37 -4 3 -13 -4 -19 -15 -6 -11 -8 -20 -5
-20 3 0 -2 -11 -11 -25 -9 -14 -13 -25 -8 -25 4 0 -3 -11 -15 -24 l-23 -24 21
-12 c12 -6 19 -16 15 -21 -9 -15 -54 30 -47 47 3 8 9 11 14 8 5 -3 9 -2 8 3
-4 21 2 44 10 39 4 -3 6 6 3 21 -3 18 -1 24 7 19 6 -4 8 -13 5 -19 -4 -7 -3
-8 2 -4 5 5 10 16 10 25 1 10 5 28 9 41 8 23 9 23 22 6 7 -11 13 -13 13 -7 0
7 1 15 3 19 1 3 -8 8 -20 9 -17 3 -23 -1 -23 -15 0 -11 -5 -23 -11 -27 -9 -5
-10 2 -6 22 l6 29 -13 -30 c-8 -16 -12 -34 -8 -40 3 -5 1 -6 -3 -2 -5 4 -9 24
-10 45 -1 20 -5 38 -10 40 -8 2 -12 -32 -5 -40 6 -9 5 -46 -1 -42 -4 2 -6 -8
-3 -23 3 -21 2 -24 -6 -13 -8 12 -10 13 -10 1 0 -8 -2 -12 -5 -9 -3 3 -1 18 5
33 7 20 7 31 -1 41 -6 8 -8 14 -3 14 5 0 2 5 -6 11 -13 9 -12 10 3 5 11 -3 17
-1 16 7 -3 18 14 53 19 39 2 -7 8 -10 12 -7z m-106 -115 c-4 -19 -2 -30 4 -30
6 0 9 6 6 13 -3 8 3 20 13 28 10 7 15 9 11 5 -4 -5 -3 -15 3 -22 6 -7 13 -28
15 -46 4 -27 2 -30 -6 -15 -6 9 -9 21 -6 25 3 5 -1 9 -9 9 -8 0 -11 -5 -8 -10
10 -17 12 -88 2 -82 -4 3 -7 19 -5 35 2 17 -1 30 -7 30 -6 0 -7 3 -4 7 4 3 -1
11 -10 18 -11 8 -14 20 -9 38 9 37 17 34 10 -3z m101 -28 c-3 -17 -17 -42 -31
-57 -14 -15 -18 -25 -10 -23 8 2 14 -1 13 -7 -1 -5 -6 -8 -12 -7 -5 2 -7 0 -3
-3 4 -4 3 -17 -3 -27 -8 -14 -14 -17 -22 -9 -7 7 -7 14 1 24 6 7 10 23 7 35
-2 13 1 21 8 19 7 -1 12 8 12 20 0 12 4 25 8 29 4 4 7 -1 7 -11 0 -27 11 -12
15 21 2 16 4 31 4 33 1 2 4 2 7 -2 3 -3 3 -19 -1 -35z"/>
<path d="M5433 5995 c0 -8 4 -12 9 -9 5 3 6 10 3 15 -9 13 -12 11 -12 -6z"/>
<path d="M5332 5962 c-1 -24 0 -25 9 -9 7 11 7 23 2 28 -5 5 -9 -3 -11 -19z"/>
<path d="M5240 5871 c0 -5 5 -13 10 -16 6 -3 10 -2 10 4 0 5 -4 13 -10 16 -5
3 -10 2 -10 -4z"/>
<path d="M5680 6066 c0 -2 8 -10 18 -17 15 -13 16 -12 3 4 -13 16 -21 21 -21
13z"/>
<path d="M5600 6021 c0 -6 4 -13 10 -16 6 -3 7 1 4 9 -7 18 -14 21 -14 7z"/>
<path d="M5620 6026 c0 -2 8 -10 18 -17 15 -13 16 -12 3 4 -13 16 -21 21 -21
13z"/>
<path d="M5583 6001 c0 -11 5 -18 9 -15 4 3 5 11 1 19 -7 21 -12 19 -10 -4z"/>
<path d="M5560 5981 c0 -6 4 -13 10 -16 6 -3 7 1 4 9 -7 18 -14 21 -14 7z"/>
<path d="M5118 5795 c-10 -13 -18 -26 -18 -28 0 -8 23 -3 43 9 14 8 15 13 5
26 -12 15 -15 15 -30 -7z m15 -10 c-3 -9 -8 -14 -10 -11 -3 3 -2 9 2 15 9 16
15 13 8 -4z"/>
<path d="M5405 5770 c-4 -6 -11 -8 -16 -5 -16 10 -10 -2 9 -16 9 -7 14 -9 10
-5 -4 5 -3 15 3 23 6 7 9 13 6 13 -3 0 -9 -5 -12 -10z"/>
<path d="M5059 5755 c-1 -3 -2 -8 -3 -12 -3 -17 -18 -33 -26 -28 -4 3 -18 -11
-30 -30 -12 -19 -25 -34 -28 -32 -4 1 -25 -17 -46 -40 -22 -25 -43 -40 -50
-36 -6 4 -5 0 2 -9 9 -11 10 -18 2 -23 -5 -3 -10 -14 -9 -23 0 -14 2 -13 8 3
5 11 14 20 21 20 7 0 15 7 17 15 4 13 3 13 -6 0 -13 -18 -14 -1 -2 19 7 11 11
8 16 -10 l8 -24 10 25 c6 14 9 29 8 34 -1 4 3 14 9 20 5 7 6 17 2 21 -4 5 -1
5 6 1 7 -4 10 -11 7 -16 -3 -5 -1 -11 4 -15 6 -3 15 4 21 15 6 11 15 18 20 15
4 -3 13 10 20 28 10 30 12 31 25 14 7 -10 16 -14 19 -9 3 6 0 12 -8 15 -10 4
-13 16 -10 36 3 17 3 31 0 31 -3 0 -7 -2 -7 -5z m-26 -61 c-7 -3 -9 -13 -6
-22 4 -14 3 -14 -5 -2 -12 16 -7 30 11 29 9 0 9 -2 0 -5z m-30 -39 c-3 -9 -8
-14 -10 -11 -3 3 -2 9 2 15 9 16 15 13 8 -4z m-66 -67 c-3 -8 -6 -5 -6 6 -1
11 2 17 5 13 3 -3 4 -12 1 -19z"/>
<path d="M5305 5723 c-5 -10 -9 -20 -9 -23 -1 -3 -5 -10 -9 -17 -4 -6 -2 -15
5 -19 7 -4 10 -4 6 1 -4 4 -3 14 3 22 6 7 8 13 4 13 -4 0 -2 7 5 15 7 9 11 18
8 21 -3 3 -9 -3 -13 -13z"/>
<path d="M6166 5731 c-4 -5 -2 -12 3 -16 5 -3 8 -15 6 -26 -4 -17 -2 -19 11
-9 11 10 12 16 2 28 -7 8 -11 17 -10 19 2 3 1 7 -1 9 -3 3 -8 1 -11 -5z"/>
<path d="M5353 5685 c0 -8 4 -12 9 -9 5 3 6 10 3 15 -9 13 -12 11 -12 -6z"/>
<path d="M4906 5672 c-3 -5 3 -17 14 -27 23 -21 26 -9 6 18 -8 10 -17 14 -20
9z"/>
<path d="M5237 5661 c-4 -17 -3 -21 5 -13 5 5 8 16 6 23 -3 8 -7 3 -11 -10z"/>
<path d="M5305 5651 c-3 -5 -2 -12 3 -15 5 -3 9 1 9 9 0 17 -3 19 -12 6z"/>
<path d="M5254 5608 l-19 -23 23 19 c21 18 27 26 19 26 -2 0 -12 -10 -23 -22z"/>
<path d="M6206 5598 c3 -5 10 -6 15 -3 13 9 11 12 -6 12 -8 0 -12 -4 -9 -9z"/>
<path d="M5209 5583 c-13 -16 -12 -17 4 -4 9 7 17 15 17 17 0 8 -8 3 -21 -13z"/>
<path d="M5153 5565 c0 -8 4 -12 9 -9 5 3 6 10 3 15 -9 13 -12 11 -12 -6z"/>
<path d="M6225 5541 c-3 -5 -2 -12 3 -15 5 -3 9 1 9 9 0 17 -3 19 -12 6z"/>
<path d="M4825 5525 c-3 -8 -7 -21 -9 -29 -3 -7 0 -18 6 -24 7 -7 5 -10 -8 -7
-11 2 -21 4 -23 4 -3 1 0 6 7 13 15 15 16 52 1 43 -6 -4 -8 -9 -5 -12 3 -3 -2
-20 -11 -37 -24 -44 -24 -53 1 -51 11 1 21 8 21 16 1 8 6 13 13 12 17 -4 36
37 24 49 -6 6 -8 17 -5 24 3 8 2 14 -1 14 -4 0 -9 -7 -11 -15z m-31 -81 c3 -8
2 -12 -4 -9 -6 3 -10 10 -10 16 0 14 7 11 14 -7z"/>
<path d="M5093 5445 c0 -8 4 -12 9 -9 5 3 6 10 3 15 -9 13 -12 11 -12 -6z"/>
<path d="M5040 5431 c0 -6 4 -13 10 -16 6 -3 7 1 4 9 -7 18 -14 21 -14 7z"/>
<path d="M4978 5423 c6 -2 9 -9 6 -14 -3 -6 -12 -5 -22 3 -14 11 -14 9 1 -8 9
-11 14 -24 10 -29 -5 -4 -2 -5 5 -1 7 4 10 11 7 16 -3 5 -1 11 5 15 13 8 3 25
-13 24 -9 0 -8 -2 1 -6z"/>
<path d="M4700 5389 c0 -15 18 -19 23 -6 3 8 -1 14 -9 14 -8 0 -14 -4 -14 -8z"/>
<path d="M4657 5352 c-10 -10 -17 -25 -17 -33 1 -8 8 -2 16 14 8 15 16 27 17
27 1 0 3 -12 4 -27 1 -20 -1 -23 -9 -12 -8 11 -9 10 -4 -4 3 -10 6 -23 6 -28
0 -5 5 -9 11 -9 6 0 9 6 6 13 -2 6 -1 22 4 34 12 31 -13 49 -34 25z"/>
<path d="M4901 5337 c-8 -10 -7 -14 2 -14 8 0 14 6 14 14 0 7 -1 13 -2 13 -2
0 -8 -6 -14 -13z"/>
<path d="M4953 5305 c0 -8 4 -12 9 -9 5 3 6 10 3 15 -9 13 -12 11 -12 -6z"/>
<path d="M3839 4223 c-13 -16 -12 -17 4 -4 16 13 21 21 13 21 -2 0 -10 -8 -17
-17z"/>
<path d="M3745 4210 c11 -14 21 -27 22 -29 1 -2 1 6 0 17 0 12 -3 19 -6 17 -2
-3 -11 1 -20 7 -10 8 -8 3 4 -12z"/>
<path d="M3783 4215 c0 -8 4 -12 9 -9 5 3 6 10 3 15 -9 13 -12 11 -12 -6z"/>
<path d="M3535 4191 c-3 -6 -12 -8 -18 -5 -7 4 -9 3 -4 -1 4 -5 0 -16 -9 -26
-14 -16 -14 -17 3 -14 10 2 20 4 23 5 3 1 9 2 13 1 4 -1 10 6 14 15 7 19 -11
41 -22 25z"/>
<path d="M3784 4176 c1 -8 5 -18 8 -22 4 -3 5 1 4 10 -1 8 -5 18 -8 22 -4 3
-5 -1 -4 -10z"/>
<path d="M3715 4171 c-3 -5 0 -13 6 -16 7 -5 2 -16 -13 -34 l-23 -26 27 24
c19 17 25 28 18 36 -5 7 -7 15 -3 18 3 4 4 7 0 7 -3 0 -8 -4 -12 -9z"/>
<path d="M3433 4124 c22 -26 46 -27 39 -2 -3 13 -8 16 -16 8 -9 -6 -17 -6 -26
3 -8 6 -7 3 3 -9z"/>
<path d="M3380 4121 c0 -5 5 -13 10 -16 6 -3 10 -2 10 4 0 5 -4 13 -10 16 -5
3 -10 2 -10 -4z"/>
<path d="M3324 4059 c-3 -6 -1 -16 5 -22 8 -8 11 -5 11 11 0 24 -5 28 -16 11z"/>
<path d="M3373 4050 c1 -10 7 -22 13 -24 7 -3 10 3 7 15 -7 27 -22 34 -20 9z"/>
<path d="M3580 4039 c0 -5 -4 -8 -9 -4 -25 15 -37 -68 -13 -87 13 -11 14 -11
7 2 -13 21 -17 52 -6 45 5 -3 12 -1 16 5 4 6 12 7 18 4 9 -5 9 -4 0 6 -6 7 -9
19 -6 26 3 8 2 14 -1 14 -3 0 -6 -5 -6 -11z m-6 -30 c-3 -5 -10 -7 -15 -3 -5
3 -7 10 -3 15 3 5 10 7 15 3 5 -3 7 -10 3 -15z"/>
<path d="M3621 4016 c-9 -11 -9 -16 1 -22 7 -4 10 -4 6 1 -4 4 -3 14 3 22 6 7
9 13 6 13 -2 0 -10 -6 -16 -14z"/>
<path d="M3255 3990 c-10 -11 -15 -20 -11 -20 4 0 -4 -14 -18 -31 -28 -33 -36
-59 -11 -39 8 7 13 16 10 20 -3 5 0 12 6 16 7 4 9 3 5 -4 -3 -6 -2 -13 3 -16
5 -3 11 8 15 26 9 43 25 61 42 47 11 -9 14 -8 14 1 0 8 3 10 6 7 4 -4 1 -13
-6 -22 -10 -12 -16 -13 -26 -4 -16 13 -20 -7 -5 -30 5 -7 5 -28 1 -47 -5 -19
-4 -34 1 -34 5 0 9 -4 9 -8 0 -5 -7 -9 -15 -9 -17 0 -17 0 -6 48 5 21 5 43 0
50 -6 10 -9 7 -10 -11 -2 -46 -4 -51 -19 -60 -10 -6 -11 -10 -2 -10 6 0 12 -4
12 -9 0 -5 -8 -8 -17 -7 -13 1 -18 -7 -18 -28 0 -17 -6 -31 -15 -34 -12 -4
-13 -2 -2 9 6 7 12 18 12 24 0 5 -5 3 -11 -5 -8 -12 -9 -9 -4 10 5 20 4 22 -5
10 -10 -13 -11 -12 -6 3 4 12 2 16 -6 11 -7 -5 -8 -3 -3 6 5 8 4 11 -2 7 -5
-3 -10 0 -10 8 0 13 4 12 19 -2 10 -9 18 -11 18 -5 0 6 -4 13 -10 17 -5 3 -6
13 -3 23 4 13 0 12 -18 -6 -20 -19 -22 -25 -11 -43 15 -23 7 -43 -14 -35 -8 3
-14 0 -14 -7 0 -9 -2 -9 -9 1 -6 10 -10 10 -20 -2 -10 -12 -9 -20 5 -41 9 -14
14 -28 11 -32 -4 -3 -11 5 -16 18 -5 13 -10 19 -10 12 -1 -6 -4 -19 -7 -27 -5
-12 -2 -15 10 -10 9 3 16 1 16 -6 0 -6 -4 -8 -10 -5 -5 3 -10 0 -10 -7 0 -10
-3 -9 -11 2 -8 12 -9 9 -4 -10 6 -24 5 -24 -9 -6 -9 11 -12 22 -7 26 20 12 29
55 16 79 -7 13 -15 19 -18 13 -4 -5 0 -15 8 -22 11 -9 12 -17 3 -36 -8 -18
-14 -21 -20 -12 -5 9 -8 6 -8 -9 0 -25 -15 -39 -25 -22 -5 7 -25 -9 -52 -40
-25 -28 -48 -49 -52 -46 -5 2 -19 -7 -31 -20 -13 -14 -20 -25 -16 -25 3 0 0
-13 -9 -30 -17 -32 -29 -41 -18 -13 4 11 3 14 -6 9 -6 -4 -9 -16 -6 -26 3 -10
1 -21 -5 -25 -16 -10 -2 -24 20 -20 12 2 20 -2 20 -10 0 -8 -8 -12 -20 -10
-11 2 -20 0 -20 -6 0 -5 5 -9 11 -9 5 0 7 -5 3 -11 -5 -8 -9 -8 -14 1 -6 9 -9
9 -13 -1 -2 -8 -3 5 -2 29 1 23 -1 45 -6 48 -8 5 -9 -3 -8 -61 0 -63 1 -65 23
-61 11 2 26 -1 33 -6 8 -6 15 -3 22 10 6 11 8 22 5 24 -2 3 3 11 12 19 15 12
16 12 10 -8 -4 -12 -2 -24 4 -28 6 -3 7 -12 4 -18 -4 -7 -4 -9 1 -5 4 4 14 3
21 -3 8 -7 14 -7 19 1 3 5 4 11 1 11 -3 1 -9 2 -13 3 -16 3 -33 18 -33 28 0 6
7 5 17 -3 15 -13 15 -12 0 12 -16 24 -16 27 -1 40 15 12 16 12 11 -6 -5 -13 2
-30 19 -50 22 -27 23 -27 9 -3 -11 17 -13 28 -6 33 10 6 15 0 13 -17 -1 -3 6
-12 16 -20 15 -12 16 -11 3 5 -7 9 -10 17 -6 17 4 0 2 7 -5 15 -10 12 -16 13
-28 3 -13 -11 -15 -10 -9 6 4 10 3 24 -3 31 -7 9 -7 15 -1 19 5 4 13 -3 16
-15 4 -12 10 -17 14 -11 9 15 29 19 31 7 1 -5 6 -16 12 -23 13 -15 42 4 31 22
-4 6 -8 28 -9 49 -1 29 1 35 11 27 7 -6 11 -23 10 -39 -1 -18 3 -28 11 -28 9
0 10 4 5 11 -15 18 -11 30 20 62 17 18 26 34 21 38 -6 3 -9 14 -7 24 2 9 4 28
4 41 1 39 14 15 16 -29 1 -23 8 -46 15 -53 10 -10 10 -8 1 11 -9 17 -9 22 1
22 9 0 9 3 -2 10 -14 9 -6 15 15 10 5 -1 2 7 -8 18 -26 29 -20 39 8 12 20 -19
23 -26 13 -39 -10 -14 -10 -14 2 -3 8 7 15 17 15 23 0 5 5 9 10 9 6 0 10 -4
10 -9 0 -6 7 -16 15 -23 12 -11 12 -11 2 3 -10 13 -9 19 3 29 8 7 15 17 15 23
0 6 -6 3 -13 -8 -12 -15 -15 -16 -23 -4 -15 25 -15 49 0 43 8 -3 12 -13 10
-22 -5 -14 -4 -14 6 1 6 9 15 15 19 13 10 -6 8 40 -2 50 -16 16 -6 26 11 10
19 -16 23 -51 9 -72 -4 -7 0 -17 7 -23 11 -9 16 -9 22 0 4 7 3 9 -4 5 -6 -3
-13 -2 -16 3 -4 5 -2 12 2 15 5 3 8 18 7 33 -1 15 2 34 8 41 5 6 6 12 2 12 -5
0 0 10 11 22 10 12 13 18 5 13 -11 -6 -13 -4 -6 11 4 10 8 46 9 79 1 42 5 59
14 58 6 -2 13 4 14 12 0 8 1 20 2 27 2 21 -49 20 -69 -2z m20 -179 c-2 -15 -4
-27 -6 -28 -1 -3 -5 -16 -8 -30 0 -3 -10 2 -20 11 -20 19 -39 6 -24 -16 21
-34 5 -58 -21 -32 -18 17 -12 39 7 27 7 -4 6 0 -2 10 -7 9 -18 14 -24 10 -6
-4 -7 -1 -2 7 5 9 4 11 -3 6 -7 -4 -12 -1 -12 6 0 10 -2 10 -9 -1 -7 -11 -9
-11 -14 0 -3 9 -6 10 -6 2 -1 -6 3 -14 9 -18 5 -3 7 -12 3 -20 -3 -8 -1 -15 4
-15 5 0 9 -12 8 -27 -1 -16 0 -19 2 -8 9 38 20 37 18 -2 -2 -21 -4 -40 -4 -42
-1 -2 -10 4 -20 13 -13 12 -18 26 -15 44 3 15 2 24 -1 20 -4 -3 -8 -14 -9 -25
-2 -10 -8 -18 -14 -18 -6 0 -12 -2 -15 -5 -10 -10 -14 -79 -6 -87 6 -6 -1 -19
-15 -32 l-24 -22 -16 22 c-20 29 -21 45 -1 29 8 -7 13 -16 10 -19 -2 -4 2 -8
8 -8 7 0 14 10 16 21 1 12 3 30 5 41 2 11 4 27 5 36 0 9 12 28 26 43 25 27 28
53 8 78 -9 10 -5 13 20 15 17 1 34 8 39 15 6 10 8 10 9 1 3 -28 4 -32 11 -39
11 -10 39 16 37 35 -2 25 0 27 25 27 20 0 24 -4 21 -25z m-89 -53 c4 4 2 -1
-5 -11 -15 -19 -24 -16 -27 9 -2 11 1 12 10 5 7 -6 17 -7 22 -3z m-166 -78 c0
-10 5 -22 10 -25 8 -5 8 -11 0 -20 -7 -8 -7 -16 -2 -19 11 -7 38 51 28 61 -3
3 -6 -2 -6 -12 0 -10 -3 -15 -7 -11 -11 11 -13 45 -3 51 6 3 7 -1 4 -10 -4
-10 -2 -15 7 -13 10 2 14 -8 13 -37 -3 -72 -2 -70 -23 -51 -10 10 -21 14 -23
9 -4 -7 -3 -123 1 -130 0 -2 1 -5 1 -8 0 -8 -10 -6 -11 3 -1 4 -10 19 -20 33
-21 30 -14 48 8 21 13 -16 13 -15 5 3 -5 11 -8 32 -6 48 1 15 -2 27 -7 27 -5
0 -8 -3 -8 -7 5 -29 -4 -33 -16 -8 -7 17 -14 24 -14 17 -1 -7 3 -21 8 -31 7
-13 6 -18 -3 -18 -9 0 -12 13 -11 38 2 40 -9 45 -18 9 -3 -11 -1 -23 4 -26 5
-3 6 -10 2 -17 -4 -7 -9 -4 -14 9 -6 16 -8 16 -8 2 -1 -9 3 -19 9 -23 5 -3 7
-13 4 -23 -5 -14 -4 -15 5 -2 9 13 11 13 11 0 0 -13 1 -13 10 0 9 14 14 7 11
-13 -1 -5 3 -6 9 -2 5 3 10 2 10 -3 0 -17 -28 -21 -34 -5 -5 12 -9 13 -21 3
-9 -7 -13 -15 -10 -18 3 -3 -8 -19 -24 -36 -17 -17 -30 -34 -31 -38 0 -5 0
-13 0 -19 0 -8 -4 -8 -12 -2 -7 6 -21 9 -30 8 -11 -2 -15 2 -11 12 4 10 8 11
13 3 5 -8 10 -6 15 7 5 10 7 21 7 25 -1 5 4 7 11 5 6 -1 12 7 12 18 0 11 -5
20 -12 20 -20 0 -24 12 -8 25 8 7 15 20 16 29 0 12 2 11 9 -4 6 -16 8 -12 8
18 -1 20 1 40 4 43 3 3 6 -11 6 -31 0 -20 5 -42 10 -47 7 -7 9 8 7 43 -2 30
-1 48 2 41 4 -10 9 -7 17 8 6 13 16 22 21 22 6 0 13 8 17 19 4 11 12 17 18 14
5 -3 10 2 11 12 0 16 1 16 10 -2 8 -17 9 -16 6 7 -2 15 0 25 4 22 5 -3 9 -14
9 -24z m-39 -134 c-12 -14 -35 -16 -47 -3 -4 3 3 5 14 2 12 -2 24 0 27 6 4 5
9 9 12 9 3 0 0 -6 -6 -14z"/>
<path d="M3246 3815 c-3 -9 -6 -24 -5 -33 0 -9 5 -4 10 12 9 32 6 48 -5 21z"/>
<path d="M2967 3639 c-8 -29 3 -47 15 -25 5 9 5 23 0 32 -8 14 -10 13 -15 -7z"/>
<path d="M2995 3635 c3 -37 18 -36 22 2 2 19 1 24 -6 14 -7 -11 -9 -11 -14 0
-3 8 -4 1 -2 -16z"/>
<path d="M2848 3502 c-8 -10 -9 -13 -1 -9 6 4 14 3 18 -3 4 -6 10 -8 15 -5 5
3 11 1 14 -3 3 -5 -8 -22 -24 -37 -17 -16 -30 -33 -30 -37 0 -9 65 62 65 71 0
3 4 12 8 19 5 7 5 12 0 11 -4 -1 -10 0 -13 1 -22 8 -41 6 -52 -8z m48 -4 c3
-4 -1 -5 -10 -4 -8 1 -18 5 -22 8 -3 4 1 5 10 4 8 -1 18 -5 22 -8z"/>
<path d="M3603 3975 c0 -8 4 -12 9 -9 5 3 6 10 3 15 -9 13 -12 11 -12 -6z"/>
<path d="M3480 3938 c7 -8 5 -17 -6 -29 -10 -12 -12 -19 -4 -24 6 -4 9 -1 8 7
-2 7 2 12 9 11 14 -3 11 24 -5 37 -9 7 -9 7 -2 -2z"/>
<path d="M3519 3933 c-13 -16 -12 -17 4 -4 16 13 21 21 13 21 -2 0 -10 -8 -17
-17z"/>
<path d="M3220 3896 c-7 -9 -17 -13 -24 -9 -6 4 -5 -1 2 -10 8 -9 10 -22 6
-29 -4 -7 5 0 20 16 17 17 24 32 18 38 -5 5 -14 3 -22 -6z m20 0 c0 -2 -8 -10
-17 -17 -16 -13 -17 -12 -4 4 13 16 21 21 21 13z"/>
<path d="M3490 3886 c0 -2 8 -10 18 -17 15 -13 16 -12 3 4 -13 16 -21 21 -21
13z"/>
<path d="M3426 3862 c-3 -5 1 -9 9 -9 8 0 12 4 9 9 -3 4 -7 8 -9 8 -2 0 -6 -4
-9 -8z"/>
<path d="M3465 3861 c-3 -5 -2 -12 3 -15 5 -3 9 1 9 9 0 17 -3 19 -12 6z"/>
<path d="M3404 3831 c1 -17 8 -37 16 -44 10 -10 11 -9 4 3 -5 8 -9 25 -10 38
0 12 -4 25 -7 28 -3 3 -5 -8 -3 -25z"/>
<path d="M3366 3758 c3 -5 10 -6 15 -3 13 9 11 12 -6 12 -8 0 -12 -4 -9 -9z"/>
<path d="M3284 3725 c0 -13 3 -22 7 -19 8 4 6 30 -2 38 -3 3 -5 -5 -5 -19z"/>
<path d="M3353 3735 c0 -8 4 -12 9 -9 5 3 6 10 3 15 -9 13 -12 11 -12 -6z"/>
<path d="M3280 3686 c0 -2 8 -10 18 -17 15 -13 16 -12 3 4 -13 16 -21 21 -21
13z"/>
<path d="M3170 3605 c-7 -8 -17 -12 -23 -8 -6 4 -7 1 -3 -6 6 -9 12 -9 25 3
10 9 21 13 26 9 4 -5 5 -2 1 5 -9 15 -11 15 -26 -3z"/>
<path d="M3095 3550 c-25 -28 -27 -46 -7 -62 15 -11 15 -11 6 2 -14 20 -11 46
4 43 7 -2 11 3 10 10 -2 6 3 11 10 9 8 -1 11 2 7 8 -8 13 -9 13 -30 -10z"/>
<path d="M3145 3561 c-3 -5 -2 -12 3 -15 5 -3 9 1 9 9 0 17 -3 19 -12 6z"/>
<path d="M2970 3463 c0 -6 7 -16 15 -23 8 -7 13 -16 10 -20 -3 -5 -1 -11 4
-14 5 -4 8 0 7 7 -2 17 -36 64 -36 50z"/>
<path d="M2975 3371 c-3 -5 -2 -12 3 -15 5 -3 9 1 9 9 0 17 -3 19 -12 6z"/>
</g>
</svg>
